<svg width="76" height="70" viewBox="0 0 76 70" fill="none" xmlns="http://www.w3.org/2000/svg">
<path d="M69.1094 16.7891L42.6953 1.58594C42.2578 1.3125 41.6563 1.20312 41 1.20312C40.3437 1.20312 39.7422 1.36719 39.3047 1.58594L13.0547 16.8437C12.125 17.3906 11.4688 18.7578 11.4688 19.7969V50.2578C11.4688 50.8594 11.5781 51.5703 12.0156 52.1719L70.4219 18.2656C70.0938 17.6094 69.6016 17.1172 69.1094 16.7891Z" fill="#2E2E2E"/>
<path d="M11.8516 52.1172C12.125 52.5547 12.5078 52.9375 12.8906 53.1562L39.25 68.4141C39.6875 68.6875 40.2891 68.7969 40.9453 68.7969C41.6016 68.7969 42.2031 68.6328 42.6406 68.4141L68.8906 53.1562C69.8203 52.6094 70.4766 51.2422 70.4766 50.2031V19.7422C70.4766 19.25 70.4219 18.7031 70.1484 18.2109L11.8516 52.1172Z" fill="#2E2E2E"/>
<path d="M52.6484 41.6172C50.3516 45.6641 45.9766 48.3984 41 48.3984C33.6172 48.3984 27.6016 42.3828 27.6016 35C27.6016 27.6172 33.6172 21.6016 41 21.6016C45.9766 21.6016 50.3516 24.3359 52.6484 28.4375L59.7578 24.3359C56.0391 17.8281 49.0391 13.3984 41 13.3984C29.0781 13.3984 19.3984 23.0781 19.3984 35C19.3984 46.9219 29.0781 56.6016 41 56.6016C48.9844 56.6016 55.9844 52.2266 59.7031 45.7734L52.6484 41.6172Z" fill="white"/>
<path d="M63.1094 16.7891L36.6953 1.58594C36.2578 1.3125 35.6563 1.20312 35 1.20312C34.3437 1.20312 33.7422 1.36719 33.3047 1.58594L7.05469 16.8437C6.125 17.3906 5.46875 18.7578 5.46875 19.7969V50.2578C5.46875 50.8594 5.57812 51.5703 6.01562 52.1719L64.4219 18.2656C64.0938 17.6094 63.6016 17.1172 63.1094 16.7891Z" fill="#659AD3"/>
<path d="M5.85156 52.1172C6.125 52.5547 6.50781 52.9375 6.89063 53.1562L33.25 68.4141C33.6875 68.6875 34.2891 68.7969 34.9453 68.7969C35.6016 68.7969 36.2031 68.6328 36.6406 68.4141L62.8906 53.1562C63.8203 52.6094 64.4766 51.2422 64.4766 50.2031V19.7422C64.4766 19.25 64.4219 18.7031 64.1484 18.2109L5.85156 52.1172Z" fill="#03599C"/>
<path d="M46.6484 41.6172C44.3516 45.6641 39.9766 48.3984 35 48.3984C27.6172 48.3984 21.6016 42.3828 21.6016 35C21.6016 27.6172 27.6172 21.6016 35 21.6016C39.9766 21.6016 44.3516 24.3359 46.6484 28.4375L53.7578 24.3359C50.0391 17.8281 43.0391 13.3984 35 13.3984C23.0781 13.3984 13.3984 23.0781 13.3984 35C13.3984 46.9219 23.0781 56.6016 35 56.6016C42.9844 56.6016 49.9844 52.2266 53.7031 45.7734L46.6484 41.6172Z" fill="white"/>
</svg>
