<svg width="76" height="70" viewBox="0 0 76 70" fill="none" xmlns="http://www.w3.org/2000/svg">
<g clip-path="url(#clip0_140_566)">
<path d="M41.0002 70C59.9436 70 75.3002 54.6434 75.3002 35.7C75.3002 16.7567 59.9436 1.40002 41.0002 1.40002C22.0568 1.40002 6.7002 16.7567 6.7002 35.7C6.7002 54.6434 22.0568 70 41.0002 70Z" fill="#2E2E2E"/>
<path d="M49.8895 41.4399C48.4895 42.9799 46.5295 43.7499 45.6195 43.7499C44.5695 43.7499 44.0095 43.1199 43.8695 42.1399C43.7995 41.7899 43.8695 41.3699 43.9395 41.0199C44.2895 38.8499 45.0595 37.4499 45.0595 37.0999C45.0595 36.9599 44.9895 36.8899 44.9195 36.8899C44.2195 36.8899 41.8395 39.3399 41.4895 40.9499L41.2095 42.2799C40.9995 43.1899 40.1595 43.7499 39.5295 43.7499C39.2495 43.7499 39.0395 43.6099 38.9695 43.2599C38.9695 43.1199 38.9695 42.9799 38.9695 42.8399L39.1095 42.1399C37.8495 43.1199 36.4495 43.7499 35.8195 43.7499C34.9095 43.7499 34.4195 43.2599 34.2795 42.5599C33.7195 43.3299 32.9495 43.7499 32.1095 43.7499C31.0595 43.7499 30.0795 43.0499 29.5895 41.9999C28.8895 42.7699 28.0495 43.5399 27.0695 44.1699C25.5995 45.0799 23.9895 45.8499 22.0995 45.8499C20.3495 45.8499 18.8095 44.9399 18.0395 44.1699C16.7795 43.0499 16.1495 41.2999 15.9395 39.7599C15.3095 34.8599 18.3195 28.3499 23.0095 25.5499C24.0595 24.9199 25.2495 24.5699 26.3695 24.5699C28.6095 24.5699 30.2895 26.1799 30.4995 28.0699C30.7095 29.8199 30.0095 31.2899 28.1195 32.1999C27.1395 32.6899 26.6495 32.6899 26.5095 32.4099C26.4395 32.2699 26.4395 31.9899 26.6495 31.8499C28.4695 30.3799 28.4695 29.1199 28.2595 27.3699C28.1195 26.2499 27.4195 25.5499 26.5795 25.5499C22.9395 25.5499 17.8995 33.4599 18.5995 39.1999C18.8795 41.4399 20.2795 44.0299 23.0795 44.0299C23.9895 44.0299 25.0395 43.7499 25.8795 43.3299C27.4195 42.5599 28.3295 41.9299 29.1695 40.8799C28.9595 38.2199 31.2695 34.8599 34.6295 34.8599C36.0995 34.8599 37.2895 35.4199 37.4295 36.6099C37.6395 38.0799 36.3795 38.3599 35.8895 38.3599C35.4695 38.3599 34.8395 38.2199 34.7695 37.8699C34.6995 37.4499 35.6795 37.6599 35.5395 36.7499C35.4695 36.1899 34.8395 35.9799 34.2795 35.9799C32.1795 35.9799 30.9895 38.9199 31.1995 40.7399C31.2695 41.5799 31.7595 42.4199 32.4595 42.4199C33.0895 42.4199 33.9995 41.5099 34.2795 40.2499C34.4895 39.3399 35.3295 38.7799 35.9595 38.7799C36.3095 38.7799 36.5195 38.9199 36.5195 39.2699C36.5195 39.4099 36.5195 39.5499 36.5195 39.6899C36.4495 40.0399 36.1695 41.3699 36.1695 41.5799C36.1695 41.7899 36.3095 42.1399 36.7295 42.1399C37.0795 42.1399 38.1995 41.5099 39.3195 40.5299C39.6695 38.7799 40.0895 36.6099 40.0895 36.4699C40.2295 35.7699 40.5095 34.9999 41.9095 34.9999C42.1895 34.9999 42.3995 35.1399 42.4695 35.4899C42.4695 35.6299 42.4695 35.7699 42.4695 35.9099L42.1195 37.7999C43.3795 36.1199 45.3395 34.8599 46.5295 34.8599C47.0195 34.8599 47.4395 35.1399 47.5095 35.6299C47.5795 35.9099 47.4395 36.3999 47.2995 36.9599C46.8795 38.0799 46.3895 39.8299 46.1095 41.2999C46.0395 41.6499 46.1795 42.0699 46.7395 42.0699C47.2295 42.0699 48.6995 41.5099 49.8895 39.8999C49.8895 39.6899 49.8895 39.4799 49.8895 39.1999C49.8895 37.9399 49.9595 36.9599 50.2395 36.1899C50.4495 35.4199 51.4295 34.7199 52.0595 34.7199C52.4095 34.7199 52.6195 34.9299 52.6195 35.2799C52.6195 35.4199 52.6195 35.5599 52.5495 35.6999C52.1295 37.0299 51.8495 38.2199 51.8495 39.4099C51.8495 40.1099 51.9895 41.1599 52.1295 41.7199C52.1295 41.8599 52.1995 41.9299 52.3395 41.9299C52.5495 41.9299 53.9495 40.5999 54.9295 38.9199C54.0195 38.3599 53.5295 37.3099 53.5295 36.0499C53.5295 33.9499 54.7895 32.8299 56.0495 32.8299C57.0295 32.8299 57.8695 33.5299 57.8695 34.9299C57.8695 35.8399 57.5195 36.8199 57.0295 37.7999C57.0295 37.7999 57.2395 37.7999 57.3095 37.7999C58.0795 37.7999 58.6395 37.4499 58.9895 37.0299C59.1295 36.8899 59.2695 36.7499 59.4095 36.6799C60.3895 35.4899 61.8595 34.6499 63.5395 34.6499C65.0095 34.6499 66.1995 35.2099 66.3395 36.3999C66.5495 37.8699 65.2195 38.2199 64.7995 38.2199C64.3795 38.2199 63.6795 38.0799 63.6795 37.7299C63.6095 37.3799 64.5895 37.5199 64.5195 36.6099C64.4495 36.0499 63.8195 35.7699 63.2595 35.7699C61.2995 35.7699 59.9695 38.3599 60.1795 40.5299C60.2495 41.3699 60.6695 42.2099 61.4395 42.2099C62.0695 42.2099 62.9795 41.2999 63.3295 40.0399C63.5395 39.1999 64.3795 38.5699 65.0095 38.5699C65.2895 38.5699 65.5695 38.7099 65.5695 39.0599C65.5695 39.2699 65.4995 39.6199 65.2195 41.0199C65.0795 41.5799 65.0795 42.1399 65.0795 42.4899C65.2195 43.3299 65.5695 43.8899 65.9195 44.2399C66.0595 44.3799 66.1295 44.5199 66.1295 44.5899C66.1295 44.7999 65.9895 45.0099 65.7095 45.0099C65.6395 45.0099 65.4995 45.0099 65.4295 44.9399C63.8895 44.3099 63.2595 43.2599 63.1195 42.3499C62.5595 43.1199 61.7895 43.4699 60.9495 43.4699C59.6195 43.4699 58.2895 42.2799 58.0795 40.7399C58.0095 40.1099 58.0795 39.4099 58.2895 38.7799C57.7295 39.1299 57.1695 39.3399 56.6095 39.3399C56.3995 39.3399 56.2595 39.3399 56.1195 39.3399C54.7895 41.2299 53.3895 42.5599 52.3395 43.1899C51.9195 43.3999 51.4995 43.5399 51.2195 43.5399C51.0095 43.5399 50.7295 43.4699 50.5895 43.2599C50.1695 42.9799 49.9595 42.2799 49.8895 41.4399ZM54.6495 35.1399C54.6495 35.9799 55.0695 36.8199 55.5595 37.3799C55.7695 36.8199 55.9095 36.2599 55.9095 35.6999C55.9095 34.6499 55.4895 34.1599 55.2095 34.1599C54.7895 34.1599 54.6495 34.7199 54.6495 35.1399Z" fill="white"/>
</g>
<g clip-path="url(#clip1_140_566)">
<path d="M35.0002 70C53.9436 70 69.3002 54.6434 69.3002 35.7C69.3002 16.7567 53.9436 1.40002 35.0002 1.40002C16.0568 1.40002 0.700195 16.7567 0.700195 35.7C0.700195 54.6434 16.0568 70 35.0002 70Z" fill="#20C4CB"/>
<path d="M43.8895 41.4399C42.4895 42.9799 40.5295 43.7499 39.6195 43.7499C38.5695 43.7499 38.0095 43.1199 37.8695 42.1399C37.7995 41.7899 37.8695 41.3699 37.9395 41.0199C38.2895 38.8499 39.0595 37.4499 39.0595 37.0999C39.0595 36.9599 38.9895 36.8899 38.9195 36.8899C38.2195 36.8899 35.8395 39.3399 35.4895 40.9499L35.2095 42.2799C34.9995 43.1899 34.1595 43.7499 33.5295 43.7499C33.2495 43.7499 33.0395 43.6099 32.9695 43.2599C32.9695 43.1199 32.9695 42.9799 32.9695 42.8399L33.1095 42.1399C31.8495 43.1199 30.4495 43.7499 29.8195 43.7499C28.9095 43.7499 28.4195 43.2599 28.2795 42.5599C27.7195 43.3299 26.9495 43.7499 26.1095 43.7499C25.0595 43.7499 24.0795 43.0499 23.5895 41.9999C22.8895 42.7699 22.0495 43.5399 21.0695 44.1699C19.5995 45.0799 17.9895 45.8499 16.0995 45.8499C14.3495 45.8499 12.8095 44.9399 12.0395 44.1699C10.7795 43.0499 10.1495 41.2999 9.93954 39.7599C9.30954 34.8599 12.3195 28.3499 17.0095 25.5499C18.0595 24.9199 19.2495 24.5699 20.3695 24.5699C22.6095 24.5699 24.2895 26.1799 24.4995 28.0699C24.7095 29.8199 24.0095 31.2899 22.1195 32.1999C21.1395 32.6899 20.6495 32.6899 20.5095 32.4099C20.4395 32.2699 20.4395 31.9899 20.6495 31.8499C22.4695 30.3799 22.4695 29.1199 22.2595 27.3699C22.1195 26.2499 21.4195 25.5499 20.5795 25.5499C16.9395 25.5499 11.8995 33.4599 12.5995 39.1999C12.8795 41.4399 14.2795 44.0299 17.0795 44.0299C17.9895 44.0299 19.0395 43.7499 19.8795 43.3299C21.4195 42.5599 22.3295 41.9299 23.1695 40.8799C22.9595 38.2199 25.2695 34.8599 28.6295 34.8599C30.0995 34.8599 31.2895 35.4199 31.4295 36.6099C31.6395 38.0799 30.3795 38.3599 29.8895 38.3599C29.4695 38.3599 28.8395 38.2199 28.7695 37.8699C28.6995 37.4499 29.6795 37.6599 29.5395 36.7499C29.4695 36.1899 28.8395 35.9799 28.2795 35.9799C26.1795 35.9799 24.9895 38.9199 25.1995 40.7399C25.2695 41.5799 25.7595 42.4199 26.4595 42.4199C27.0895 42.4199 27.9995 41.5099 28.2795 40.2499C28.4895 39.3399 29.3295 38.7799 29.9595 38.7799C30.3095 38.7799 30.5195 38.9199 30.5195 39.2699C30.5195 39.4099 30.5195 39.5499 30.5195 39.6899C30.4495 40.0399 30.1695 41.3699 30.1695 41.5799C30.1695 41.7899 30.3095 42.1399 30.7295 42.1399C31.0795 42.1399 32.1995 41.5099 33.3195 40.5299C33.6695 38.7799 34.0895 36.6099 34.0895 36.4699C34.2295 35.7699 34.5095 34.9999 35.9095 34.9999C36.1895 34.9999 36.3995 35.1399 36.4695 35.4899C36.4695 35.6299 36.4695 35.7699 36.4695 35.9099L36.1195 37.7999C37.3795 36.1199 39.3395 34.8599 40.5295 34.8599C41.0195 34.8599 41.4395 35.1399 41.5095 35.6299C41.5795 35.9099 41.4395 36.3999 41.2995 36.9599C40.8795 38.0799 40.3895 39.8299 40.1095 41.2999C40.0395 41.6499 40.1795 42.0699 40.7395 42.0699C41.2295 42.0699 42.6995 41.5099 43.8895 39.8999C43.8895 39.6899 43.8895 39.4799 43.8895 39.1999C43.8895 37.9399 43.9595 36.9599 44.2395 36.1899C44.4495 35.4199 45.4295 34.7199 46.0595 34.7199C46.4095 34.7199 46.6195 34.9299 46.6195 35.2799C46.6195 35.4199 46.6195 35.5599 46.5495 35.6999C46.1295 37.0299 45.8495 38.2199 45.8495 39.4099C45.8495 40.1099 45.9895 41.1599 46.1295 41.7199C46.1295 41.8599 46.1995 41.9299 46.3395 41.9299C46.5495 41.9299 47.9495 40.5999 48.9295 38.9199C48.0195 38.3599 47.5295 37.3099 47.5295 36.0499C47.5295 33.9499 48.7895 32.8299 50.0495 32.8299C51.0295 32.8299 51.8695 33.5299 51.8695 34.9299C51.8695 35.8399 51.5195 36.8199 51.0295 37.7999C51.0295 37.7999 51.2395 37.7999 51.3095 37.7999C52.0795 37.7999 52.6395 37.4499 52.9895 37.0299C53.1295 36.8899 53.2695 36.7499 53.4095 36.6799C54.3895 35.4899 55.8595 34.6499 57.5395 34.6499C59.0095 34.6499 60.1995 35.2099 60.3395 36.3999C60.5495 37.8699 59.2195 38.2199 58.7995 38.2199C58.3795 38.2199 57.6795 38.0799 57.6795 37.7299C57.6095 37.3799 58.5895 37.5199 58.5195 36.6099C58.4495 36.0499 57.8195 35.7699 57.2595 35.7699C55.2995 35.7699 53.9695 38.3599 54.1795 40.5299C54.2495 41.3699 54.6695 42.2099 55.4395 42.2099C56.0695 42.2099 56.9795 41.2999 57.3295 40.0399C57.5395 39.1999 58.3795 38.5699 59.0095 38.5699C59.2895 38.5699 59.5695 38.7099 59.5695 39.0599C59.5695 39.2699 59.4995 39.6199 59.2195 41.0199C59.0795 41.5799 59.0795 42.1399 59.0795 42.4899C59.2195 43.3299 59.5695 43.8899 59.9195 44.2399C60.0595 44.3799 60.1295 44.5199 60.1295 44.5899C60.1295 44.7999 59.9895 45.0099 59.7095 45.0099C59.6395 45.0099 59.4995 45.0099 59.4295 44.9399C57.8895 44.3099 57.2595 43.2599 57.1195 42.3499C56.5595 43.1199 55.7895 43.4699 54.9495 43.4699C53.6195 43.4699 52.2895 42.2799 52.0795 40.7399C52.0095 40.1099 52.0795 39.4099 52.2895 38.7799C51.7295 39.1299 51.1695 39.3399 50.6095 39.3399C50.3995 39.3399 50.2595 39.3399 50.1195 39.3399C48.7895 41.2299 47.3895 42.5599 46.3395 43.1899C45.9195 43.3999 45.4995 43.5399 45.2195 43.5399C45.0095 43.5399 44.7295 43.4699 44.5895 43.2599C44.1695 42.9799 43.9595 42.2799 43.8895 41.4399ZM48.6495 35.1399C48.6495 35.9799 49.0695 36.8199 49.5595 37.3799C49.7695 36.8199 49.9095 36.2599 49.9095 35.6999C49.9095 34.6499 49.4895 34.1599 49.2095 34.1599C48.7895 34.1599 48.6495 34.7199 48.6495 35.1399Z" fill="white"/>
</g>
<defs>
<clipPath id="clip0_140_566">
<rect width="70" height="70" fill="white" transform="translate(6)"/>
</clipPath>
<clipPath id="clip1_140_566">
<rect width="70" height="70" fill="white"/>
</clipPath>
</defs>
</svg>
