<svg width="77" height="70" viewBox="0 0 77 70" fill="none" xmlns="http://www.w3.org/2000/svg">
<path d="M23.3337 70C29.7737 70 35.0003 64.7733 35.0003 58.3333V46.6666H23.3337C16.8937 46.6666 11.667 51.8933 11.667 58.3333C11.667 64.7733 16.8937 70 23.3337 70Z" fill="#2E2E2E"/>
<path d="M11.667 35C11.667 28.56 16.8937 23.3334 23.3337 23.3334H35.0003V46.6667H23.3337C16.8937 46.6667 11.667 41.44 11.667 35Z" fill="#2E2E2E"/>
<path d="M11.667 11.6667C11.667 5.22667 16.8937 0 23.3337 0H35.0003V23.3333H23.3337C16.8937 23.3333 11.667 18.1067 11.667 11.6667Z" fill="#2E2E2E"/>
<path d="M35 0H46.6667C53.1067 0 58.3333 5.22667 58.3333 11.6667C58.3333 18.1067 53.1067 23.3333 46.6667 23.3333H35V0Z" fill="#2E2E2E"/>
<path d="M58.3333 35C58.3333 41.44 53.1067 46.6667 46.6667 46.6667C40.2267 46.6667 35 41.44 35 35C35 28.56 40.2267 23.3334 46.6667 23.3334C53.1067 23.3334 58.3333 28.56 58.3333 35Z" fill="#2E2E2E"/>
<path d="M30.3337 70C36.7737 70 42.0003 64.7733 42.0003 58.3333V46.6666H30.3337C23.8937 46.6666 18.667 51.8933 18.667 58.3333C18.667 64.7733 23.8937 70 30.3337 70Z" fill="#0ACF83"/>
<path d="M18.667 35C18.667 28.56 23.8937 23.3334 30.3337 23.3334H42.0003V46.6667H30.3337C23.8937 46.6667 18.667 41.44 18.667 35Z" fill="#A259FF"/>
<path d="M18.667 11.6667C18.667 5.22667 23.8937 0 30.3337 0H42.0003V23.3333H30.3337C23.8937 23.3333 18.667 18.1067 18.667 11.6667Z" fill="#F24E1E"/>
<path d="M42 0H53.6667C60.1067 0 65.3333 5.22667 65.3333 11.6667C65.3333 18.1067 60.1067 23.3333 53.6667 23.3333H42V0Z" fill="#FF7262"/>
<path d="M65.3333 35C65.3333 41.44 60.1067 46.6667 53.6667 46.6667C47.2267 46.6667 42 41.44 42 35C42 28.56 47.2267 23.3334 53.6667 23.3334C60.1067 23.3334 65.3333 28.56 65.3333 35Z" fill="#1ABCFE"/>
</svg>
