<svg width="76" height="70" viewBox="0 0 76 70" fill="none" xmlns="http://www.w3.org/2000/svg">
<g clip-path="url(#clip0_140_561)">
<path d="M74.218 31.9255L44.0759 1.78499C42.3412 0.049209 39.5259 0.049209 37.7884 1.78499L31.5305 8.04452L39.4701 15.9841C41.3158 15.3612 43.4311 15.779 44.9016 17.2495C46.3798 18.7294 46.7949 20.8627 46.1556 22.7144L53.8075 30.3674C55.6587 29.7292 57.7953 30.1416 59.273 31.6225C61.3402 33.688 61.3402 37.0366 59.273 39.1032C57.2058 41.1704 53.8584 41.1704 51.7901 39.1032C50.2359 37.5479 49.8514 35.2647 50.6389 33.3495L43.5033 26.2134L43.5022 44.9936C44.0064 45.2424 44.4816 45.5749 44.9016 45.9933C46.9683 48.0588 46.9683 51.4062 44.9016 53.4762C42.835 55.5417 39.4854 55.5417 37.4209 53.4762C35.3548 51.4068 35.1853 48.0594 37.2509 45.9933C37.7616 45.483 38.2653 45.0975 38.8122 44.8394V25.8852C38.2653 25.6271 37.7622 25.2443 37.2503 24.7308C35.6857 23.1667 35.3931 20.8698 36.1959 18.947L28.4123 11.1196L7.76554 31.786C6.02921 33.5234 6.04015 36.3387 7.77648 38.0751L37.9235 68.2155C39.6587 69.9513 42.4762 69.9513 44.2142 68.2155L74.2158 38.2151C75.9521 36.4782 75.9537 33.6612 74.218 31.9255Z" fill="#2E2E2E"/>
</g>
<g clip-path="url(#clip1_140_561)">
<path d="M68.218 31.9255L38.0759 1.78499C36.3412 0.049209 33.5259 0.049209 31.7884 1.78499L25.5305 8.04452L33.4701 15.9841C35.3158 15.3612 37.4311 15.779 38.9016 17.2495C40.3798 18.7294 40.7949 20.8627 40.1556 22.7144L47.8075 30.3674C49.6587 29.7292 51.7953 30.1416 53.273 31.6225C55.3402 33.688 55.3402 37.0366 53.273 39.1032C51.2058 41.1704 47.8584 41.1704 45.7901 39.1032C44.2359 37.5479 43.8514 35.2647 44.6389 33.3495L37.5033 26.2134L37.5022 44.9936C38.0064 45.2424 38.4816 45.5749 38.9016 45.9933C40.9683 48.0588 40.9683 51.4062 38.9016 53.4762C36.835 55.5417 33.4854 55.5417 31.4209 53.4762C29.3548 51.4068 29.1853 48.0594 31.2509 45.9933C31.7616 45.483 32.2653 45.0975 32.8122 44.8394V25.8852C32.2653 25.6271 31.7622 25.2443 31.2503 24.7308C29.6857 23.1667 29.3931 20.8698 30.1959 18.947L22.4123 11.1196L1.76554 31.786C0.0292121 33.5234 0.0401496 36.3387 1.77648 38.0751L31.9235 68.2155C33.6587 69.9513 36.4762 69.9513 38.2142 68.2155L68.2158 38.2151C69.9521 36.4782 69.9537 33.6612 68.218 31.9255Z" fill="#F34F29"/>
</g>
<defs>
<clipPath id="clip0_140_561">
<rect width="70" height="70" fill="white" transform="translate(6)"/>
</clipPath>
<clipPath id="clip1_140_561">
<rect width="70" height="70" fill="white"/>
</clipPath>
</defs>
</svg>
