<svg width="76" height="70" viewBox="0 0 76 70" fill="none" xmlns="http://www.w3.org/2000/svg">
<path d="M63.8 2H16.2C10.5667 2 6 6.43238 6 11.9V58.1C6 63.5676 10.5667 68 16.2 68H63.8C69.4333 68 74 63.5676 74 58.1V11.9C74 6.43238 69.4333 2 63.8 2Z" fill="#2E2E2E"/>
<path d="M50.2969 50.5859C51.6641 52.9102 53.5781 54.5508 56.7227 54.5508C59.457 54.5508 61.2344 53.1836 61.2344 51.2695C61.2344 49.082 59.457 48.2617 56.4492 46.8945L54.8086 46.2109C50.0234 44.1602 46.8789 41.6992 46.8789 36.3672C46.8789 31.4453 50.5703 27.6172 56.4492 27.6172C60.6875 27.6172 63.6953 29.1211 65.7461 32.9492L60.6875 36.2305C59.5938 34.1797 58.3633 33.3594 56.4492 33.3594C54.5352 33.3594 53.3047 34.5898 53.3047 36.2305C53.3047 38.1445 54.5352 38.9648 57.4062 40.1953L59.0469 40.8789C64.6523 43.3398 67.7969 45.6641 67.7969 51.2695C67.7969 57.1484 63.1484 60.4297 56.8594 60.4297C50.707 60.4297 46.7422 57.5586 44.8281 53.7305L50.2969 50.5859ZM27.0547 51.1328C28.1484 52.9102 28.9688 54.5508 31.293 54.5508C33.4805 54.5508 34.8477 53.7305 34.8477 50.4492V27.7539H41.4102V50.1758C41.4102 57.0117 37.4453 60.0195 31.5664 60.0195C26.2344 60.0195 23.2266 57.2852 21.7227 54.0039L27.0547 51.1328Z" fill="black"/>
<g clip-path="url(#clip0_140_514)">
<path d="M59.5 0H10.5C4.70101 0 0 4.70101 0 10.5V59.5C0 65.299 4.70101 70 10.5 70H59.5C65.299 70 70 65.299 70 59.5V10.5C70 4.70101 65.299 0 59.5 0Z" fill="#F7DF1E"/>
<path d="M44.2969 50.5859C45.6641 52.9102 47.5781 54.5508 50.7227 54.5508C53.457 54.5508 55.2344 53.1836 55.2344 51.2695C55.2344 49.082 53.457 48.2617 50.4492 46.8945L48.8086 46.2109C44.0234 44.1602 40.8789 41.6992 40.8789 36.3672C40.8789 31.4453 44.5703 27.6172 50.4492 27.6172C54.6875 27.6172 57.6953 29.1211 59.7461 32.9492L54.6875 36.2305C53.5938 34.1797 52.3633 33.3594 50.4492 33.3594C48.5352 33.3594 47.3047 34.5898 47.3047 36.2305C47.3047 38.1445 48.5352 38.9648 51.4062 40.1953L53.0469 40.8789C58.6523 43.3398 61.7969 45.6641 61.7969 51.2695C61.7969 57.1484 57.1484 60.4297 50.8594 60.4297C44.707 60.4297 40.7422 57.5586 38.8281 53.7305L44.2969 50.5859ZM21.0547 51.1328C22.1484 52.9102 22.9688 54.5508 25.293 54.5508C27.4805 54.5508 28.8477 53.7305 28.8477 50.4492V27.7539H35.4102V50.1758C35.4102 57.0117 31.4453 60.0195 25.5664 60.0195C20.2344 60.0195 17.2266 57.2852 15.7227 54.0039L21.0547 51.1328Z" fill="black"/>
</g>
<defs>
<clipPath id="clip0_140_514">
<rect width="70" height="70" fill="white"/>
</clipPath>
</defs>
</svg>
