<svg width="77" height="70" viewBox="0 0 77 70" fill="none" xmlns="http://www.w3.org/2000/svg">
<path d="M30.5703 30.111C30.8984 29.75 31.2375 29.411 31.5875 29.0938C33.6437 27.1469 36.1484 25.7907 38.85 25.1235C39.4516 24.9594 40.0641 24.861 40.6656 24.7735C42.875 24.4782 45.1281 25.0032 47.0859 26.1297L64.7719 36.2797C68.0312 38.15 69.8578 41.5079 69.9016 44.9969V39.2329L69.9125 24.861C69.9125 21.1094 67.9219 17.675 64.6844 15.8157L47.1844 5.76411C43.9469 3.90474 39.9766 3.90474 36.7391 5.80786L30.625 9.37348L30.5813 28.5032V30.1L30.5703 30.111Z" fill="#2E2E2E"/>
<path d="M43.4655 47.2828C42.9843 47.1735 42.5249 47.0532 42.0765 46.911C39.364 46.1016 36.9468 44.5922 35.0218 42.5906C34.5843 42.1531 34.1905 41.6719 33.8077 41.1907C32.4515 39.4188 31.7843 37.2094 31.7843 34.9453V14.5578C31.7843 10.8063 33.7858 7.5469 36.7937 5.77502L31.7843 8.62971L19.3265 15.7828C16.0671 17.6422 14.0874 21.0875 14.0874 24.8172V44.9969C14.0874 48.7375 16.0671 52.1719 19.3265 54.0313L25.4624 57.5531L42.0765 48.0594L43.4655 47.261V47.2828Z" fill="#2E2E2E"/>
<path d="M69.8908 44.9969C69.8471 41.5078 68.0205 38.15 64.7611 36.2797L52.3799 29.1703C52.9814 31.8609 52.883 34.6281 52.1283 37.2203C51.9643 37.8219 51.7455 38.4015 51.5268 38.9703C50.6736 41.0265 49.0877 42.7109 47.1299 43.8375L29.4658 54.0312C26.2174 55.9125 22.3893 55.8031 19.3486 54.0859L24.3252 56.9953L36.7502 64.2031C39.9877 66.0953 43.958 66.0953 47.1955 64.225L64.6736 54.1406C67.9111 52.2703 69.9018 48.8359 69.8799 45.0844V44.9969H69.8908Z" fill="#2E2E2E"/>
<path d="M23.5703 30.111C23.8984 29.75 24.2375 29.411 24.5875 29.0938C26.6437 27.1469 29.1484 25.7907 31.85 25.1235C32.4516 24.9594 33.0641 24.861 33.6656 24.7735C35.875 24.4782 38.1281 25.0032 40.0859 26.1297L57.7719 36.2797C61.0312 38.15 62.8578 41.5079 62.9016 44.9969V39.2329L62.9125 24.861C62.9125 21.1094 60.9219 17.675 57.6844 15.8157L40.1844 5.76411C36.9469 3.90474 32.9766 3.90474 29.7391 5.80786L23.625 9.37348L23.5813 28.5032V30.1L23.5703 30.111Z" fill="url(#paint0_linear_140_555)"/>
<path d="M36.4655 47.2828C35.9843 47.1735 35.5249 47.0532 35.0765 46.911C32.364 46.1016 29.9468 44.5922 28.0218 42.5906C27.5843 42.1531 27.1905 41.6719 26.8077 41.1907C25.4515 39.4188 24.7843 37.2094 24.7843 34.9453V14.5578C24.7843 10.8063 26.7858 7.5469 29.7937 5.77502L24.7843 8.62971L12.3265 15.7828C9.06709 17.6422 7.0874 21.0875 7.0874 24.8172V44.9969C7.0874 48.7375 9.06709 52.1719 12.3265 54.0313L18.4624 57.5531L35.0765 48.0594L36.4655 47.261V47.2828Z" fill="url(#paint1_linear_140_555)"/>
<path d="M62.8908 44.9969C62.8471 41.5078 61.0205 38.15 57.7611 36.2797L45.3799 29.1703C45.9814 31.8609 45.883 34.6281 45.1283 37.2203C44.9643 37.8219 44.7455 38.4015 44.5268 38.9703C43.6736 41.0265 42.0877 42.7109 40.1299 43.8375L22.4658 54.0312C19.2174 55.9125 15.3893 55.8031 12.3486 54.0859L17.3252 56.9953L29.7502 64.2031C32.9877 66.0953 36.958 66.0953 40.1955 64.225L57.6736 54.1406C60.9111 52.2703 62.9018 48.8359 62.8799 45.0844V44.9969H62.8908Z" fill="url(#paint2_linear_140_555)"/>
<defs>
<linearGradient id="paint0_linear_140_555" x1="60.8781" y1="27.4204" x2="23.5047" y2="18.386" gradientUnits="userSpaceOnUse">
<stop stop-color="#4DDBF4"/>
<stop offset="1" stop-color="#2B3A7A"/>
</linearGradient>
<linearGradient id="paint1_linear_140_555" x1="16.428" y1="22.1703" x2="31.9812" y2="55.9016" gradientUnits="userSpaceOnUse">
<stop stop-color="#9F7AD8"/>
<stop offset="0.92" stop-color="#0A467C"/>
</linearGradient>
<linearGradient id="paint2_linear_140_555" x1="33.1736" y1="57.6297" x2="50.9799" y2="32.1672" gradientUnits="userSpaceOnUse">
<stop stop-color="#CA95F3"/>
<stop offset="1" stop-color="#4C3675"/>
</linearGradient>
</defs>
</svg>
