<svg width="72" height="70" viewBox="0 0 72 70" fill="none" xmlns="http://www.w3.org/2000/svg">
<g opacity="0.5">
<path d="M64.5216 44.1597C64.363 44.1597 64.2055 44.1181 64.0666 44.0372L62.6174 43.1797C62.4008 43.0588 62.5064 43.0156 62.578 42.991C62.8668 42.8904 62.9253 42.8668 63.2332 42.6929C63.2654 42.6749 63.3075 42.6815 63.3409 42.7011L64.4538 43.3623C64.4943 43.3847 64.5517 43.3847 64.5883 43.3623L68.9289 40.8571C68.9699 40.8341 68.9956 40.7876 68.9956 40.7395V35.7301C68.9956 35.6809 68.9699 35.6355 68.9283 35.6104L64.5894 33.1073C64.5489 33.0844 64.4959 33.0844 64.4554 33.1073L60.1171 35.6109C60.0755 35.6355 60.0487 35.6826 60.0487 35.7301V40.7395C60.0487 40.7876 60.0755 40.833 60.1171 40.8554L61.306 41.5429C61.9513 41.865 62.3467 41.4854 62.3467 41.1037V36.1572C62.3467 36.0878 62.403 36.0326 62.4725 36.0326H63.0232C63.0915 36.0326 63.1484 36.0878 63.1484 36.1572V41.1037C63.1484 41.9645 62.6797 42.4583 61.8632 42.4583C61.6122 42.4583 61.4148 42.4583 60.8636 42.1871L59.7255 41.5319C59.4439 41.369 59.2705 41.0649 59.2705 40.7401V35.7307C59.2705 35.4053 59.4439 35.1018 59.7255 34.9399L64.0661 32.4314C64.3406 32.2766 64.7053 32.2766 64.9777 32.4314L69.3182 34.9399C69.5993 35.1023 69.7738 35.4058 69.7738 35.7307V40.7401C69.7738 41.0654 69.5993 41.3679 69.3182 41.5319L64.9777 44.0377C64.8399 44.1181 64.6829 44.1597 64.5216 44.1597ZM65.8631 40.7083C63.9627 40.7083 63.5651 39.8361 63.5651 39.1049C63.5651 39.036 63.6214 38.9797 63.6909 38.9797H64.252C64.3149 38.9797 64.3668 39.0245 64.3767 39.0858C64.4609 39.6572 64.7141 39.9454 65.8631 39.9454C66.7769 39.9454 67.1663 39.7387 67.1663 39.2531C67.1663 38.9731 67.0558 38.7658 65.635 38.6264C64.4472 38.5088 63.7128 38.2468 63.7128 37.2958C63.7128 36.4203 64.4511 35.8975 65.6881 35.8975C67.0788 35.8975 67.7668 36.3804 67.8537 37.4161C67.857 37.4511 67.8444 37.4856 67.8209 37.5124C67.7968 37.537 67.764 37.5523 67.729 37.5523H67.1652C67.1067 37.5523 67.0553 37.5113 67.0432 37.4544C66.9076 36.8529 66.5795 36.6609 65.6875 36.6609C64.6895 36.6609 64.5736 37.0093 64.5736 37.269C64.5736 37.5846 64.7103 37.6765 66.0583 37.8547C67.3921 38.0314 68.026 38.2808 68.026 39.2186C68.0265 40.1664 67.2379 40.7083 65.8631 40.7083Z" fill="#83CD29"/>
<path d="M55.5839 37.4227C55.7551 37.3226 55.8606 37.14 55.8606 36.9415V35.6541C55.8606 35.4561 55.7556 35.2735 55.5839 35.1734L51.0098 32.5178C50.8376 32.4177 50.6254 32.4172 50.4526 32.5167L45.8501 35.174C45.6784 35.2735 45.5723 35.4567 45.5723 35.6552V40.9686C45.5723 41.1683 45.6795 41.3531 45.8534 41.4521L50.4269 44.0579C50.5953 44.1547 50.802 44.1553 50.9721 44.0612L53.7382 42.5234C53.8262 42.4742 53.8809 42.3823 53.8815 42.2828C53.882 42.1822 53.8284 42.0892 53.7415 42.0394L49.1105 39.3816C49.0236 39.3318 48.9705 39.24 48.9705 39.141V37.4752C48.9705 37.3757 49.0236 37.2843 49.1094 37.2351L50.5516 36.4039C50.6369 36.3541 50.743 36.3541 50.8288 36.4039L52.2709 37.2351C52.3573 37.2849 52.4104 37.3762 52.4104 37.4752V38.7855C52.4104 38.8856 52.4634 38.9775 52.5493 39.0267C52.6357 39.0765 52.7418 39.0765 52.8282 39.0261L55.5839 37.4227Z" fill="#2E2E2E"/>
<path d="M50.6633 37.1732C50.6967 37.1547 50.7371 37.1547 50.7699 37.1732L51.6531 37.6835C51.686 37.7026 51.7062 37.7382 51.7062 37.7759V38.7958C51.7062 38.8341 51.686 38.8691 51.6531 38.8882L50.7699 39.3979C50.7371 39.4171 50.6961 39.4171 50.6633 39.3979L49.7806 38.8882C49.7473 38.8691 49.7271 38.8341 49.7271 38.7958V37.7759C49.7271 37.7382 49.7473 37.7026 49.7806 37.6835L50.6633 37.1732Z" fill="#83CD29"/>
<path d="M38.686 39.2951C38.686 39.3443 38.6598 39.3903 38.6166 39.4154L37.0361 40.3265C36.9929 40.3517 36.9398 40.3517 36.8972 40.3265L35.3167 39.4154C35.2735 39.3903 35.2473 39.3443 35.2473 39.2951V37.4696C35.2473 37.4204 35.2741 37.3739 35.3167 37.3488L36.8972 36.4366C36.9404 36.4109 36.9934 36.4109 37.0366 36.4366L38.6177 37.3488C38.6603 37.3739 38.6866 37.4204 38.6866 37.4696L38.686 39.2951ZM39.1131 25.7785C39.0273 25.731 38.9223 25.732 38.837 25.7818C38.7522 25.8321 38.6997 25.9229 38.6997 26.0213V33.0842C38.6997 33.1531 38.6625 33.2177 38.6029 33.2527C38.5427 33.2871 38.4684 33.2871 38.4082 33.2527L37.2554 32.5882C37.0837 32.4892 36.872 32.4892 36.7003 32.5882L32.0967 35.2449C31.9245 35.3445 31.8184 35.5282 31.8184 35.7267V41.0418C31.8184 41.2403 31.9245 41.4235 32.0962 41.5236L36.6998 44.182C36.8715 44.2815 37.0837 44.2815 37.2559 44.182L41.8606 41.5236C42.0323 41.4235 42.1384 41.2403 42.1384 41.0418V27.7927C42.1384 27.5914 42.0291 27.4055 41.8535 27.307L39.1131 25.7785Z" fill="#2E2E2E"/>
<path d="M22.9115 32.4882C23.0832 32.3887 23.2954 32.3887 23.4671 32.4882L28.0707 35.1444C28.2424 35.2439 28.3485 35.4277 28.3485 35.6262V40.9429C28.3485 41.1414 28.2424 41.3252 28.0707 41.4247L23.4677 44.0831C23.296 44.1821 23.0838 44.1821 22.9115 44.0831L18.3096 41.4247C18.1378 41.3252 18.0317 41.1414 18.0317 40.9429V35.6256C18.0317 35.4277 18.1378 35.2439 18.3096 35.1444L22.9115 32.4882Z" fill="#83CD29"/>
<path d="M14.5398 35.5818C14.5398 35.3817 14.4348 35.1979 14.262 35.0989L9.66006 32.4504C9.58131 32.4045 9.49436 32.381 9.40631 32.3777H9.35873C9.27123 32.381 9.18373 32.4045 9.10498 32.4504L4.50248 35.0989C4.33131 35.1979 4.22412 35.3817 4.22412 35.5818L4.23396 42.7131C4.23396 42.8126 4.28592 42.905 4.37287 42.9532C4.45818 43.0046 4.56373 43.0046 4.64904 42.9532L7.38342 41.3869C7.55623 41.2841 7.66178 41.1031 7.66178 40.9046V37.573C7.66178 37.3739 7.76678 37.1907 7.93904 37.0912L9.10389 36.4207C9.19029 36.3699 9.28545 36.3458 9.3817 36.3458C9.47686 36.3458 9.5742 36.3699 9.65896 36.4207L10.8227 37.0912C10.995 37.1907 11.1011 37.3739 11.1011 37.573V40.9046C11.1011 41.1031 11.2077 41.2852 11.3794 41.3869L14.1138 42.9532C14.1997 43.0046 14.3069 43.0046 14.3916 42.9532C14.4764 42.9045 14.5294 42.8121 14.5294 42.7131L14.5398 35.5818Z" fill="#2E2E2E"/>
</g>
<path d="M62.5216 44.1597C62.363 44.1597 62.2055 44.1181 62.0666 44.0372L60.6174 43.1797C60.4008 43.0588 60.5064 43.0156 60.578 42.991C60.8668 42.8904 60.9253 42.8668 61.2332 42.6929C61.2654 42.6749 61.3075 42.6815 61.3409 42.7011L62.4538 43.3623C62.4943 43.3847 62.5517 43.3847 62.5883 43.3623L66.9289 40.8571C66.9699 40.8341 66.9956 40.7876 66.9956 40.7395V35.7301C66.9956 35.6809 66.9699 35.6355 66.9283 35.6104L62.5894 33.1073C62.5489 33.0844 62.4959 33.0844 62.4554 33.1073L58.1171 35.6109C58.0755 35.6355 58.0487 35.6826 58.0487 35.7301V40.7395C58.0487 40.7876 58.0755 40.833 58.1171 40.8554L59.306 41.5429C59.9513 41.865 60.3467 41.4854 60.3467 41.1037V36.1572C60.3467 36.0878 60.403 36.0326 60.4725 36.0326H61.0232C61.0915 36.0326 61.1484 36.0878 61.1484 36.1572V41.1037C61.1484 41.9645 60.6797 42.4583 59.8632 42.4583C59.6122 42.4583 59.4148 42.4583 58.8636 42.1871L57.7255 41.5319C57.4439 41.369 57.2705 41.0649 57.2705 40.7401V35.7307C57.2705 35.4053 57.4439 35.1018 57.7255 34.9399L62.0661 32.4314C62.3406 32.2766 62.7053 32.2766 62.9777 32.4314L67.3182 34.9399C67.5993 35.1023 67.7738 35.4058 67.7738 35.7307V40.7401C67.7738 41.0654 67.5993 41.3679 67.3182 41.5319L62.9777 44.0377C62.8399 44.1181 62.6829 44.1597 62.5216 44.1597ZM63.8631 40.7083C61.9627 40.7083 61.5651 39.8361 61.5651 39.1049C61.5651 39.036 61.6214 38.9797 61.6909 38.9797H62.252C62.3149 38.9797 62.3668 39.0245 62.3767 39.0858C62.4609 39.6572 62.7141 39.9454 63.8631 39.9454C64.7769 39.9454 65.1663 39.7387 65.1663 39.2531C65.1663 38.9731 65.0558 38.7658 63.635 38.6264C62.4472 38.5088 61.7128 38.2468 61.7128 37.2958C61.7128 36.4203 62.4511 35.8975 63.6881 35.8975C65.0788 35.8975 65.7668 36.3804 65.8537 37.4161C65.857 37.4511 65.8444 37.4856 65.8209 37.5124C65.7968 37.537 65.764 37.5523 65.729 37.5523H65.1652C65.1067 37.5523 65.0553 37.5113 65.0432 37.4544C64.9076 36.8529 64.5795 36.6609 63.6875 36.6609C62.6895 36.6609 62.5736 37.0093 62.5736 37.269C62.5736 37.5846 62.7103 37.6765 64.0583 37.8547C65.3921 38.0314 66.026 38.2808 66.026 39.2186C66.0265 40.1664 65.2379 40.7083 63.8631 40.7083Z" fill="#83CD29"/>
<path d="M53.5839 37.4227C53.7551 37.3226 53.8606 37.14 53.8606 36.9415V35.6541C53.8606 35.4561 53.7556 35.2735 53.5839 35.1734L49.0098 32.5178C48.8376 32.4177 48.6254 32.4172 48.4526 32.5167L43.8501 35.174C43.6784 35.2735 43.5723 35.4567 43.5723 35.6552V40.9686C43.5723 41.1683 43.6795 41.3531 43.8534 41.4521L48.4269 44.0579C48.5953 44.1547 48.802 44.1553 48.9721 44.0612L51.7382 42.5234C51.8262 42.4742 51.8809 42.3823 51.8815 42.2828C51.882 42.1822 51.8284 42.0892 51.7415 42.0394L47.1105 39.3816C47.0236 39.3318 46.9705 39.24 46.9705 39.141V37.4752C46.9705 37.3757 47.0236 37.2843 47.1094 37.2351L48.5516 36.4039C48.6369 36.3541 48.743 36.3541 48.8288 36.4039L50.2709 37.2351C50.3573 37.2849 50.4104 37.3762 50.4104 37.4752V38.7855C50.4104 38.8856 50.4634 38.9775 50.5493 39.0267C50.6357 39.0765 50.7418 39.0765 50.8282 39.0261L53.5839 37.4227Z" fill="#404137"/>
<path d="M48.6633 37.1732C48.6967 37.1547 48.7371 37.1547 48.7699 37.1732L49.6531 37.6835C49.686 37.7026 49.7062 37.7382 49.7062 37.7759V38.7958C49.7062 38.8341 49.686 38.8691 49.6531 38.8882L48.7699 39.3979C48.7371 39.4171 48.6961 39.4171 48.6633 39.3979L47.7806 38.8882C47.7473 38.8691 47.7271 38.8341 47.7271 38.7958V37.7759C47.7271 37.7382 47.7473 37.7026 47.7806 37.6835L48.6633 37.1732Z" fill="#83CD29"/>
<path d="M36.686 39.2951C36.686 39.3443 36.6598 39.3903 36.6166 39.4154L35.0361 40.3265C34.9929 40.3517 34.9398 40.3517 34.8972 40.3265L33.3167 39.4154C33.2735 39.3903 33.2473 39.3443 33.2473 39.2951V37.4696C33.2473 37.4204 33.2741 37.3739 33.3167 37.3488L34.8972 36.4366C34.9404 36.4109 34.9934 36.4109 35.0366 36.4366L36.6177 37.3488C36.6603 37.3739 36.6866 37.4204 36.6866 37.4696L36.686 39.2951ZM37.1131 25.7785C37.0273 25.731 36.9223 25.732 36.837 25.7818C36.7522 25.8321 36.6997 25.9229 36.6997 26.0213V33.0842C36.6997 33.1531 36.6625 33.2177 36.6029 33.2527C36.5427 33.2871 36.4684 33.2871 36.4082 33.2527L35.2554 32.5882C35.0837 32.4892 34.872 32.4892 34.7003 32.5882L30.0967 35.2449C29.9245 35.3445 29.8184 35.5282 29.8184 35.7267V41.0418C29.8184 41.2403 29.9245 41.4235 30.0962 41.5236L34.6998 44.182C34.8715 44.2815 35.0837 44.2815 35.2559 44.182L39.8606 41.5236C40.0323 41.4235 40.1384 41.2403 40.1384 41.0418V27.7927C40.1384 27.5914 40.0291 27.4055 39.8535 27.307L37.1131 25.7785Z" fill="#404137"/>
<path d="M20.9115 32.4882C21.0832 32.3887 21.2954 32.3887 21.4671 32.4882L26.0707 35.1444C26.2424 35.2439 26.3485 35.4277 26.3485 35.6262V40.9429C26.3485 41.1414 26.2424 41.3252 26.0707 41.4247L21.4677 44.0831C21.296 44.1821 21.0838 44.1821 20.9115 44.0831L16.3096 41.4247C16.1378 41.3252 16.0317 41.1414 16.0317 40.9429V35.6256C16.0317 35.4277 16.1378 35.2439 16.3096 35.1444L20.9115 32.4882Z" fill="#83CD29"/>
<path d="M12.5398 35.5818C12.5398 35.3817 12.4348 35.1979 12.262 35.0989L7.66006 32.4504C7.58131 32.4045 7.49436 32.381 7.40631 32.3777H7.35873C7.27123 32.381 7.18373 32.4045 7.10498 32.4504L2.50248 35.0989C2.33131 35.1979 2.22412 35.3817 2.22412 35.5818L2.23396 42.7131C2.23396 42.8126 2.28592 42.905 2.37287 42.9532C2.45818 43.0046 2.56373 43.0046 2.64904 42.9532L5.38342 41.3869C5.55623 41.2841 5.66178 41.1031 5.66178 40.9046V37.573C5.66178 37.3739 5.76678 37.1907 5.93904 37.0912L7.10389 36.4207C7.19029 36.3699 7.28545 36.3458 7.3817 36.3458C7.47686 36.3458 7.5742 36.3699 7.65896 36.4207L8.82271 37.0912C8.99498 37.1907 9.10107 37.3739 9.10107 37.573V40.9046C9.10107 41.1031 9.20771 41.2852 9.37943 41.3869L12.1138 42.9532C12.1997 43.0046 12.3069 43.0046 12.3916 42.9532C12.4764 42.9045 12.5294 42.8121 12.5294 42.7131L12.5398 35.5818Z" fill="#404137"/>
</svg>
