<svg width="73" height="71" viewBox="0 0 73 71" fill="none" xmlns="http://www.w3.org/2000/svg">
<path d="M68.0523 43.6114C59.9202 45.2379 59.3611 42.5684 59.3611 42.5684C67.947 30.2154 71.5364 14.5351 68.4392 10.6975C59.9889 0.228996 45.3613 5.17994 45.1171 5.30826L45.0387 5.32205C43.432 4.99859 41.6341 4.80611 39.6131 4.77403C35.9337 4.71571 33.1425 5.70939 31.0244 7.26674C31.0244 7.26674 4.93031 -3.15638 6.1441 20.3756C6.40222 25.3817 13.5444 58.2548 22.0631 48.3256C25.1767 44.6947 28.1853 41.6248 28.1853 41.6248C29.6794 42.5872 31.4682 43.0782 33.3435 42.9019L33.4892 42.7821C33.4438 43.2328 33.4646 43.6737 33.5475 44.1957C31.3528 46.5731 31.9979 46.9904 27.6109 47.8661C23.1716 48.7532 25.7794 50.3323 27.4821 50.7454C29.5462 51.2457 34.3216 51.9546 37.5481 47.575L37.4196 48.0748C38.2793 48.7426 38.883 52.4183 38.7819 55.7507C38.6807 59.0828 38.6132 61.3705 39.2905 63.1575C39.9683 64.9444 40.6434 68.965 46.4108 67.7669C51.2296 66.7656 53.7269 64.1708 54.0744 59.8423C54.3208 56.7653 54.8789 57.2203 54.9139 54.4691L55.3615 53.1668C55.8775 48.9956 55.4435 47.6498 58.4122 48.2757L59.1341 48.3372C61.3189 48.4335 64.179 47.9963 65.8577 47.2399C69.472 45.6136 71.6157 42.8979 68.0517 43.6114H68.0523Z" fill="#2E2E2E"/>
<path d="M32.552 22.6144C31.8192 22.5155 31.1555 22.6069 30.8198 22.8535C30.6311 22.9922 30.5726 23.1528 30.5567 23.2634C30.5146 23.5563 30.7263 23.8803 30.8564 24.0474C31.2245 24.5203 31.762 24.8454 32.2941 24.917C32.3713 24.9276 32.4481 24.9323 32.5244 24.9323C33.4117 24.9323 34.2186 24.2624 34.2897 23.7679C34.3786 23.1486 33.4513 22.7355 32.552 22.6144ZM56.8289 22.634C56.7589 22.1485 55.868 22.0101 55.0225 22.1241C54.1782 22.2381 53.3595 22.6077 53.4279 23.0942C53.4825 23.4726 54.1872 24.1184 55.0212 24.1184C55.0917 24.1184 55.1628 24.1139 55.2345 24.1041C55.7912 24.0293 56.1997 23.6865 56.3938 23.489C56.6891 23.1878 56.8603 22.8522 56.8289 22.634Z" fill="#2E2E2E"/>
<path d="M70.7585 43.4267C70.4484 42.5175 69.4503 42.2251 67.7922 42.5571C62.869 43.5423 61.1058 42.8598 60.527 42.4465C64.3537 36.794 67.5018 29.9612 69.2001 23.5863C70.0046 20.5665 70.4489 17.762 70.4853 15.4761C70.5255 12.9673 70.0847 11.1236 69.1758 9.99732C65.5112 5.45706 60.1327 3.02162 53.6221 2.95481C49.1462 2.90602 45.3646 4.01663 44.6315 4.32895C43.0877 3.95671 41.4047 3.72817 39.5724 3.69901C36.2124 3.64625 33.3079 4.42625 30.9033 6.0162C29.8588 5.6392 27.1594 4.74069 23.8582 4.22502C18.151 3.3342 13.6158 4.00921 10.3794 6.23228C6.51761 8.88512 4.73479 13.6271 5.08014 20.3263C5.19636 22.5801 6.52089 29.5137 8.61104 36.1538C11.3624 44.8933 14.3532 49.8408 17.4999 50.8586C17.8683 50.9777 18.2929 51.0609 18.7613 51.0609C19.9092 51.0609 21.3166 50.5593 22.7808 48.8524C24.5668 46.7751 26.4143 44.7481 28.321 42.7742C29.558 43.4179 30.917 43.7774 32.3069 43.8135C32.3096 43.8487 32.3132 43.884 32.3164 43.919C32.0772 44.1956 31.8429 44.4763 31.6137 44.7608C30.6507 45.9461 30.4502 46.193 27.3503 46.8118C26.4684 46.9884 24.1264 47.4563 24.092 49.0481C24.0548 50.7873 26.8605 51.5177 27.1802 51.5952C28.2942 51.8656 29.3674 51.9989 30.3909 51.9989C32.88 51.9989 35.0705 51.2057 36.821 49.6709C36.7672 55.8711 37.0338 61.9806 37.8016 63.8421C38.4305 65.366 39.9667 69.0902 44.8191 69.09C45.5311 69.09 46.3148 69.0096 47.1769 68.8304C52.2413 67.7779 54.4405 65.6075 55.2912 60.8228C55.7465 58.2657 56.5277 52.1596 56.8952 48.8843C57.6707 49.1189 58.669 49.2263 59.7482 49.226C61.9992 49.226 64.5966 48.7623 66.2254 48.0292C68.0553 47.2052 71.3573 45.1834 70.7585 43.4267ZM58.6982 21.294C58.6816 22.2609 58.5443 23.1388 58.3988 24.055C58.2421 25.0405 58.0803 26.0594 58.0395 27.2962C57.9993 28.4999 58.1544 29.7513 58.3042 30.9615C58.6072 33.406 58.9181 35.9226 57.7147 38.4057C57.5148 38.0623 57.3367 37.7073 57.1815 37.3428C57.0319 36.9913 56.7071 36.4266 56.2573 35.645C54.5075 32.6024 50.4101 25.4774 52.5076 22.5701C53.1324 21.7047 54.7181 20.8149 58.6982 21.294ZM53.8737 4.91275C59.7072 5.03763 64.3217 7.15359 67.5888 11.2015C70.0946 14.3064 67.3353 28.4341 59.3474 40.6222C59.267 40.5231 59.1863 40.4244 59.1051 40.326L59.0039 40.2035C61.0681 36.8982 60.6645 33.6279 60.3052 30.7285C60.1576 29.5386 60.0181 28.4148 60.0537 27.359C60.0903 26.2402 60.2429 25.2804 60.3905 24.3525C60.5718 23.209 60.7564 22.0258 60.7055 20.631C60.7435 20.4846 60.7589 20.3117 60.7389 20.1065C60.609 18.769 59.034 14.7659 55.8239 11.1427C54.0678 9.16085 51.5071 6.94308 48.0107 5.44725C49.5146 5.145 51.5711 4.86317 53.8737 4.91275ZM21.2313 47.6032C19.618 49.484 18.504 49.1234 18.1376 49.0052C15.7505 48.2331 12.9806 43.341 10.5385 35.5835C8.42538 28.871 7.19053 22.1212 7.09264 20.2285C6.78421 14.2425 8.28073 10.0708 11.5409 7.82886C16.8467 4.18074 25.5699 6.36431 29.0751 7.47174C29.0248 7.51999 28.9723 7.56506 28.9225 7.61411C23.1705 13.2464 23.3069 22.8694 23.3212 23.4577C23.3206 23.6847 23.3403 24.006 23.3671 24.448C23.4661 26.0665 23.6504 29.0789 23.1582 32.4903C22.701 35.6604 23.7089 38.7631 25.9229 41.0032C26.1501 41.2326 26.389 41.451 26.6385 41.6575C25.653 42.6809 23.5112 44.944 21.2313 47.6032ZM27.3779 39.6513C25.5934 37.8458 24.783 35.3345 25.154 32.7607C25.6735 29.1571 25.4819 26.0186 25.3788 24.3324C25.3643 24.0964 25.3514 23.8896 25.344 23.7266C26.1843 23.0041 30.0783 20.9812 32.8554 21.5981C34.1225 21.8794 34.8947 22.7162 35.2157 24.1553C36.8771 31.6061 35.4355 34.7115 34.2773 37.2071C34.0385 37.7212 33.813 38.2071 33.6205 38.7098L33.4712 39.0985C33.0933 40.081 32.7416 40.9947 32.5237 41.8622C30.6266 41.8569 28.7812 41.071 27.3779 39.651V39.6513ZM27.6691 49.6995C27.1151 49.5654 26.6169 49.3323 26.3246 49.139C26.5688 49.0277 27.0033 48.876 27.7569 48.7255C31.4037 47.9977 31.967 47.4839 33.1969 45.9697C33.4788 45.6224 33.7985 45.229 34.2412 44.7496L34.2417 44.7491C34.901 44.0333 35.2026 44.1547 35.7494 44.3747C36.1927 44.5524 36.6244 45.0911 36.7994 45.6839C36.8823 45.9639 36.9753 46.4952 36.6709 46.9088C34.1017 50.3968 30.3578 50.352 27.6691 49.6995ZM46.7548 66.9199C42.2933 67.8468 40.7137 65.6396 39.6727 63.1164C39.0009 61.4875 38.6706 54.142 38.9049 46.0299C38.9079 45.922 38.8921 45.8178 38.8614 45.7197C38.834 45.526 38.7924 45.3345 38.7367 45.1465C38.3884 43.9662 37.5394 42.9789 36.5208 42.5695C36.1161 42.407 35.3735 42.1087 34.481 42.3301C34.6713 41.5697 35.0013 40.711 35.3592 39.7812L35.5094 39.3901C35.6783 38.9492 35.8905 38.4924 36.1148 38.0088C37.3269 35.3979 38.9869 31.8216 37.1853 23.7425C36.5104 20.7163 34.2567 19.2385 30.8404 19.5819C28.7924 19.7873 26.9185 20.5885 25.9839 21.048C25.7829 21.1466 25.5992 21.2421 25.4274 21.3349C25.6883 18.2859 26.6738 12.5879 30.3603 8.98269C32.6815 6.71322 35.7727 5.59227 39.539 5.65272C46.9601 5.77043 51.719 9.46309 54.4047 12.5404C56.7191 15.1919 57.9723 17.863 58.4724 19.3037C54.7112 18.9328 52.1532 19.6526 50.8566 21.4502C48.0355 25.3603 52.3999 32.9492 54.4974 36.5965C54.8821 37.2649 55.2141 37.8426 55.3185 38.0881C56.0016 39.6932 56.8859 40.7648 57.5315 41.5469C57.7294 41.7866 57.9214 42.0191 58.0674 42.2222C56.9283 42.5406 54.8821 43.2763 55.0686 46.9539C54.9182 48.7992 53.8488 57.4385 53.3055 60.4909C52.5883 64.5235 51.0578 66.0254 46.7548 66.9202V66.9199ZM65.3769 46.2571C64.2121 46.7813 62.2628 47.1745 60.411 47.259C58.3657 47.3518 57.3245 47.0369 57.0795 46.8431C56.9646 44.5513 57.8443 44.3119 58.7753 44.0585C58.9216 44.0187 59.0644 43.9797 59.2022 43.9331C59.2878 44.0007 59.3816 44.0677 59.4844 44.1335C61.1283 45.1855 64.0603 45.299 68.1999 44.4705L68.2453 44.4617C67.6869 44.9678 66.7316 45.6471 65.3769 46.2571Z" fill="#2E2E2E"/>
<path d="M65.0523 42.6114C56.9202 44.2379 56.3611 41.5684 56.3611 41.5684C64.947 29.2154 68.5364 13.5351 65.4392 9.69746C56.9889 -0.771004 42.3613 4.17994 42.1171 4.30826L42.0387 4.32205C40.432 3.99859 38.6341 3.80611 36.6131 3.77403C32.9337 3.71571 30.1425 4.70939 28.0244 6.26674C28.0244 6.26674 1.93031 -4.15638 3.1441 19.3756C3.40222 24.3817 10.5444 57.2548 19.0631 47.3256C22.1767 43.6947 25.1853 40.6248 25.1853 40.6248C26.6794 41.5872 28.4682 42.0782 30.3435 41.9019L30.4892 41.7821C30.4438 42.2328 30.4646 42.6737 30.5475 43.1957C28.3528 45.5731 28.9979 45.9904 24.6109 46.8661C20.1716 47.7532 22.7794 49.3323 24.4821 49.7454C26.5462 50.2457 31.3216 50.9546 34.5481 46.575L34.4196 47.0748C35.2793 47.7426 35.883 51.4183 35.7819 54.7507C35.6807 58.0828 35.6132 60.3705 36.2905 62.1575C36.9683 63.9444 37.6434 67.965 43.4108 66.7669C48.2296 65.7656 50.7269 63.1708 51.0744 58.8423C51.3208 55.7653 51.8789 56.2203 51.9139 53.4691L52.3615 52.1668C52.8775 47.9956 52.4435 46.6498 55.4122 47.2757L56.1341 47.3372C58.3189 47.4335 61.179 46.9963 62.8577 46.2399C66.472 44.6136 68.6157 41.8979 65.0517 42.6114H65.0523Z" fill="#336791"/>
<path d="M29.552 21.6144C28.8192 21.5155 28.1555 21.6069 27.8198 21.8535C27.6311 21.9922 27.5726 22.1528 27.5567 22.2634C27.5146 22.5563 27.7263 22.8803 27.8564 23.0474C28.2245 23.5203 28.762 23.8454 29.2941 23.917C29.3713 23.9276 29.4481 23.9323 29.5244 23.9323C30.4117 23.9323 31.2186 23.2624 31.2897 22.7679C31.3786 22.1486 30.4513 21.7355 29.552 21.6144ZM53.8289 21.634C53.7589 21.1485 52.868 21.0101 52.0225 21.1241C51.1782 21.2381 50.3595 21.6077 50.4279 22.0942C50.4825 22.4726 51.1872 23.1184 52.0212 23.1184C52.0917 23.1184 52.1628 23.1139 52.2345 23.1041C52.7912 23.0293 53.1997 22.6865 53.3938 22.489C53.6891 22.1878 53.8603 21.8522 53.8289 21.634Z" fill="white"/>
<path d="M67.7585 42.4267C67.4484 41.5175 66.4503 41.2251 64.7922 41.5571C59.869 42.5423 58.1058 41.8598 57.527 41.4465C61.3537 35.794 64.5018 28.9612 66.2001 22.5863C67.0046 19.5665 67.4489 16.762 67.4853 14.4761C67.5255 11.9673 67.0847 10.1236 66.1758 8.99732C62.5112 4.45706 57.1327 2.02162 50.6221 1.95481C46.1462 1.90602 42.3646 3.01663 41.6315 3.32895C40.0877 2.95671 38.4047 2.72817 36.5724 2.69901C33.2124 2.64625 30.3079 3.42625 27.9033 5.0162C26.8588 4.6392 24.1594 3.74069 20.8582 3.22502C15.151 2.3342 10.6158 3.00921 7.37936 5.23228C3.51761 7.88512 1.73479 12.6271 2.08014 19.3263C2.19636 21.5801 3.52089 28.5137 5.61104 35.1538C8.36237 43.8933 11.3532 48.8408 14.4999 49.8586C14.8683 49.9777 15.2929 50.0609 15.7613 50.0609C16.9092 50.0609 18.3166 49.5593 19.7808 47.8524C21.5668 45.7751 23.4143 43.7481 25.321 41.7742C26.558 42.4179 27.917 42.7774 29.3069 42.8135C29.3096 42.8487 29.3132 42.884 29.3164 42.919C29.0772 43.1956 28.8429 43.4763 28.6137 43.7608C27.6507 44.9461 27.4502 45.193 24.3503 45.8118C23.4684 45.9884 21.1264 46.4563 21.092 48.0481C21.0548 49.7873 23.8605 50.5177 24.1802 50.5952C25.2942 50.8656 26.3674 50.9989 27.3909 50.9989C29.88 50.9989 32.0705 50.2057 33.821 48.6709C33.7672 54.8711 34.0338 60.9806 34.8016 62.8421C35.4305 64.366 36.9667 68.0902 41.8191 68.09C42.5311 68.09 43.3148 68.0096 44.1769 67.8304C49.2413 66.7779 51.4405 64.6075 52.2912 59.8228C52.7465 57.2657 53.5277 51.1596 53.8952 47.8843C54.6707 48.1189 55.669 48.2263 56.7482 48.226C58.9992 48.226 61.5966 47.7623 63.2254 47.0292C65.0553 46.2052 68.3573 44.1834 67.7585 42.4267ZM55.6982 20.294C55.6816 21.2609 55.5443 22.1388 55.3988 23.055C55.2421 24.0405 55.0803 25.0594 55.0395 26.2962C54.9993 27.4999 55.1544 28.7513 55.3042 29.9615C55.6072 32.406 55.9181 34.9226 54.7147 37.4057C54.5148 37.0623 54.3367 36.7073 54.1815 36.3428C54.0319 35.9913 53.7071 35.4266 53.2573 34.645C51.5075 31.6024 47.4101 24.4774 49.5076 21.5701C50.1324 20.7047 51.7181 19.8149 55.6982 20.294ZM50.8737 3.91275C56.7072 4.03763 61.3217 6.15359 64.5888 10.2015C67.0946 13.3064 64.3353 27.4341 56.3474 39.6222C56.267 39.5231 56.1863 39.4244 56.1051 39.326L56.0039 39.2035C58.0681 35.8982 57.6645 32.6279 57.3052 29.7285C57.1576 28.5386 57.0181 27.4148 57.0537 26.359C57.0903 25.2402 57.2429 24.2804 57.3905 23.3525C57.5718 22.209 57.7564 21.0258 57.7055 19.631C57.7435 19.4846 57.7589 19.3117 57.7389 19.1065C57.609 17.769 56.034 13.7659 52.8239 10.1427C51.0678 8.16085 48.5071 5.94308 45.0107 4.44725C46.5146 4.145 48.5711 3.86317 50.8737 3.91275ZM18.2313 46.6032C16.618 48.484 15.504 48.1234 15.1376 48.0052C12.7505 47.2331 9.98057 42.341 7.5385 34.5835C5.42538 27.871 4.19053 21.1212 4.09264 19.2285C3.78421 13.2425 5.28073 9.07076 8.54093 6.82886C13.8467 3.18074 22.5699 5.36431 26.0751 6.47174C26.0248 6.51999 25.9723 6.56506 25.9225 6.61411C20.1705 12.2464 20.3069 21.8694 20.3212 22.4577C20.3206 22.6847 20.3403 23.006 20.3671 23.448C20.4661 25.0665 20.6504 28.0789 20.1582 31.4903C19.701 34.6604 20.7089 37.7631 22.9229 40.0032C23.1501 40.2326 23.389 40.451 23.6385 40.6575C22.653 41.6809 20.5112 43.944 18.2313 46.6032ZM24.3779 38.6513C22.5934 36.8458 21.783 34.3345 22.154 31.7607C22.6735 28.1571 22.4819 25.0186 22.3788 23.3324C22.3643 23.0964 22.3514 22.8896 22.344 22.7266C23.1843 22.0041 27.0783 19.9812 29.8554 20.5981C31.1225 20.8794 31.8947 21.7162 32.2157 23.1553C33.8771 30.6061 32.4355 33.7115 31.2773 36.2071C31.0385 36.7212 30.813 37.2071 30.6205 37.7098L30.4712 38.0985C30.0933 39.081 29.7416 39.9947 29.5237 40.8622C27.6266 40.8569 25.7812 40.071 24.3779 38.651V38.6513ZM24.6691 48.6995C24.1151 48.5654 23.6169 48.3323 23.3246 48.139C23.5688 48.0277 24.0033 47.876 24.7569 47.7255C28.4037 46.9977 28.967 46.4839 30.1969 44.9697C30.4788 44.6224 30.7985 44.229 31.2412 43.7496L31.2417 43.7491C31.901 43.0333 32.2026 43.1547 32.7494 43.3747C33.1927 43.5524 33.6244 44.0911 33.7994 44.6839C33.8823 44.9639 33.9753 45.4952 33.6709 45.9088C31.1017 49.3968 27.3578 49.352 24.6691 48.6995ZM43.7548 65.9199C39.2933 66.8468 37.7137 64.6396 36.6727 62.1164C36.0009 60.4875 35.6706 53.142 35.9049 45.0299C35.9079 44.922 35.8921 44.8178 35.8614 44.7197C35.834 44.526 35.7924 44.3345 35.7367 44.1465C35.3884 42.9662 34.5394 41.9789 33.5208 41.5695C33.1161 41.407 32.3735 41.1087 31.481 41.3301C31.6713 40.5697 32.0013 39.711 32.3592 38.7812L32.5094 38.3901C32.6783 37.9492 32.8905 37.4924 33.1148 37.0088C34.3269 34.3979 35.9869 30.8216 34.1853 22.7425C33.5104 19.7163 31.2567 18.2385 27.8404 18.5819C25.7924 18.7873 23.9185 19.5885 22.9839 20.048C22.7829 20.1466 22.5992 20.2421 22.4274 20.3349C22.6883 17.2859 23.6738 11.5879 27.3603 7.98269C29.6815 5.71322 32.7727 4.59227 36.539 4.65272C43.9601 4.77043 48.719 8.46309 51.4047 11.5404C53.7191 14.1919 54.9723 16.863 55.4724 18.3037C51.7112 17.9328 49.1532 18.6526 47.8566 20.4502C45.0355 24.3603 49.3999 31.9492 51.4974 35.5965C51.8821 36.2649 52.2141 36.8426 52.3185 37.0881C53.0016 38.6932 53.8859 39.7648 54.5315 40.5469C54.7294 40.7866 54.9214 41.0191 55.0674 41.2222C53.9283 41.5406 51.8821 42.2763 52.0686 45.9539C51.9182 47.7992 50.8488 56.4385 50.3055 59.4909C49.5883 63.5235 48.0578 65.0254 43.7548 65.9202V65.9199ZM62.3769 45.2571C61.2121 45.7813 59.2628 46.1745 57.411 46.259C55.3657 46.3518 54.3245 46.0369 54.0795 45.8431C53.9646 43.5513 54.8443 43.3119 55.7753 43.0585C55.9216 43.0187 56.0644 42.9797 56.2022 42.9331C56.2878 43.0007 56.3816 43.0677 56.4844 43.1335C58.1283 44.1855 61.0603 44.299 65.1999 43.4705L65.2453 43.4617C64.6869 43.9678 63.7316 44.6471 62.3769 45.2571Z" fill="white"/>
</svg>
