<svg width="89" height="59" viewBox="0 0 89 59" fill="none" xmlns="http://www.w3.org/2000/svg">
<path d="M0 0.954019C0.199912 0.538929 0.394398 0.0453249 0.605214 0.0394784C2.69398 -0.0184078 4.78546 0.00445117 7.01962 0.00445117C7.01962 3.23816 7.01962 6.31735 7.01962 9.53938C11.7904 9.53938 16.4168 9.53914 21.0432 9.53959C22.096 9.53968 23.1497 9.51721 24.2014 9.54824C27.5569 9.64717 30.4499 10.5663 31.9726 13.5536C33.4691 16.4895 32.9054 19.6504 30.5632 22.2261C33.9447 24.8293 35.0774 28.1937 33.8027 31.8484C32.7071 34.9901 29.6207 37.1793 25.4332 37.2439C17.0181 37.3735 8.59895 37.2824 0.00215698 37.2824C0.00215698 25.1839 0.00215685 13.1429 0 0.954019ZM7.06773 29.3222C7.06773 30.0328 7.06773 30.7433 7.06773 31.5359C9.25317 31.5359 11.2241 31.5361 13.1951 31.5359C16.7874 31.5353 20.3806 31.5739 23.972 31.5188C26.0576 31.4867 27.2443 30.3279 27.217 28.5544C27.1898 26.787 26.091 25.805 24.0529 25.7651C22.9387 25.7433 21.8233 25.7713 20.7085 25.7719C17.3296 25.7734 13.9508 25.7724 10.6409 25.7724C10.6409 23.7284 10.6409 21.9025 10.6409 20.0354C14.9196 20.0354 19.066 20.0315 23.2126 20.0375C24.7462 20.0396 25.7082 19.4442 25.8121 17.9824C25.9152 16.5349 25.2124 15.4039 23.598 15.3742C18.1074 15.2738 12.6132 15.3359 7.06509 15.3359C7.06509 19.9783 7.06509 24.4818 7.06773 29.3222Z" fill="url(#paint0_radial_199_9)"/>
<path d="M40.9133 46.0345L26.7869 19.273C26.6964 19.1016 26.8306 18.9014 27.0361 18.9014H33.2775C33.5581 18.9014 33.827 19.0052 34.0251 19.19C34.115 19.2739 34.1878 19.3722 34.2401 19.4803L44.2215 40.1319C44.3321 40.3608 44.577 40.508 44.8468 40.508C45.1185 40.508 45.3647 40.3588 45.4742 40.1277L55.177 19.659C55.3953 19.1986 55.8855 18.9014 56.4268 18.9014H62.7404C62.9425 18.9014 63.1066 19.0538 63.1066 19.2417C63.1066 19.2912 63.095 19.3401 63.0725 19.385L47.9659 49.6493L46.4907 52.4022C45.7064 53.8657 44.5251 55.1137 43.0634 56.023L42.5905 56.3172C41.7304 56.8522 40.7594 57.214 39.74 57.3795L31.4842 58.7192C31.2543 58.7565 31.0439 58.592 31.0439 58.3751V52.972C31.0439 52.7433 31.2432 52.5579 31.4891 52.5579L35.9359 52.3139C37.8807 52.2071 39.6314 51.1819 40.5749 49.5972L40.8301 49.1686C41.1293 48.6663 41.2861 48.1016 41.2861 47.5275C41.2861 47.0099 41.1586 46.4992 40.9133 46.0345Z" fill="url(#paint1_radial_199_9)"/>
<path d="M88.7089 37.1091C80.9907 37.1675 73.4336 37.2123 65.8753 37.1853C59.8641 37.1637 55.7877 33.9925 55.2792 28.5852C54.948 25.0626 54.9549 21.4703 55.2976 17.9486C55.7934 12.8687 59.2798 9.96789 64.8574 9.4543C65.5337 9.39208 66.2192 9.40639 66.9002 9.40576C71.163 9.40186 75.427 9.4038 79.7715 9.4038C79.7715 11.3518 79.7715 13.1875 79.7715 15.1856C75.7237 15.1856 71.7772 15.1827 67.8307 15.1863C63.6496 15.1901 62.1244 16.5762 62.1175 20.3791C62.1129 22.5774 62.0726 24.7767 62.1336 26.9736C62.2175 30.0002 63.9371 31.4701 67.2809 31.4707C72.1005 31.4718 76.9189 31.471 81.8856 31.471C81.8856 20.9437 81.8856 10.5382 81.8856 0C84.277 0 86.5269 0 88.8906 0C88.9182 0.259177 88.9815 0.576861 88.9815 0.894585C88.993 12.5058 89.0011 24.1172 88.9999 35.7285C88.9999 36.1739 88.9148 36.6192 88.7089 37.1091Z" fill="url(#paint2_radial_199_9)"/>
<defs>
<radialGradient id="paint0_radial_199_9" cx="0" cy="0" r="1" gradientUnits="userSpaceOnUse" gradientTransform="translate(-18.4673 22.3093) scale(41.7138 44.384)">
<stop stop-color="#2BF76A"/>
<stop offset="0.1509" stop-color="#2AF06A"/>
<stop offset="0.3635" stop-color="#26DE69"/>
<stop offset="0.6128" stop-color="#1FC068"/>
<stop offset="0.8877" stop-color="#169666"/>
<stop offset="1" stop-color="#128365"/>
</radialGradient>
<radialGradient id="paint1_radial_199_9" cx="0" cy="0" r="1" gradientUnits="userSpaceOnUse" gradientTransform="translate(7.19478 42.7112) scale(44.1896 47.3692)">
<stop stop-color="#2BF76A"/>
<stop offset="0.1509" stop-color="#2AF06A"/>
<stop offset="0.3635" stop-color="#26DE69"/>
<stop offset="0.6128" stop-color="#1FC068"/>
<stop offset="0.8877" stop-color="#169666"/>
<stop offset="1" stop-color="#128365"/>
</radialGradient>
<radialGradient id="paint2_radial_199_9" cx="0" cy="0" r="1" gradientUnits="userSpaceOnUse" gradientTransform="translate(36.7553 22.2375) scale(41.2914 44.2412)">
<stop stop-color="#2BF76A"/>
<stop offset="0.1509" stop-color="#2AF06A"/>
<stop offset="0.3635" stop-color="#26DE69"/>
<stop offset="0.6128" stop-color="#1FC068"/>
<stop offset="0.8877" stop-color="#169666"/>
<stop offset="1" stop-color="#128365"/>
</radialGradient>
</defs>
</svg>
