<svg width="268" height="73" viewBox="0 0 268 73" fill="none" xmlns="http://www.w3.org/2000/svg">
<path d="M39.5417 18.25V33.4583C39.5417 34.265 39.8621 35.0387 40.4325 35.6091C41.003 36.1795 41.7766 36.5 42.5833 36.5H61.1436C61.5466 36.5001 61.9456 36.5802 62.3174 36.7358C62.6892 36.8914 63.0263 37.1194 63.3092 37.4064L66.0407 40.1743C66.6018 40.7434 66.9165 41.5104 66.9167 42.3096V51.7083C66.9167 52.515 66.5962 53.2887 66.0258 53.8591C65.4554 54.4295 64.6817 54.75 63.875 54.75H54.75" stroke="#B165FB" stroke-width="4" stroke-linecap="round" stroke-linejoin="round"/>
<path d="M15.2083 54.75H9.12501C8.31831 54.75 7.54465 54.4295 6.97423 53.8591C6.4038 53.2887 6.08334 52.515 6.08334 51.7083V24.3333C6.08334 22.7199 6.72426 21.1726 7.86511 20.0318C9.00596 18.8909 10.5533 18.25 12.1667 18.25H48.6667C52.0125 18.25 55.0542 20.6833 55.9667 23.725L59.5437 36.5" stroke="#B165FB" stroke-width="4" stroke-linecap="round" stroke-linejoin="round"/>
<path d="M27.375 54.75H42.5833" stroke="#B165FB" stroke-width="4" stroke-linecap="round" stroke-linejoin="round"/>
<path d="M48.6667 60.8332C52.0264 60.8332 54.75 58.1096 54.75 54.7498C54.75 51.3901 52.0264 48.6665 48.6667 48.6665C45.3069 48.6665 42.5833 51.3901 42.5833 54.7498C42.5833 58.1096 45.3069 60.8332 48.6667 60.8332Z" stroke="#B165FB" stroke-width="4" stroke-linecap="round" stroke-linejoin="round"/>
<path d="M21.2917 60.8332C24.6514 60.8332 27.375 58.1096 27.375 54.7498C27.375 51.3901 24.6514 48.6665 21.2917 48.6665C17.9319 48.6665 15.2083 51.3901 15.2083 54.7498C15.2083 58.1096 17.9319 60.8332 21.2917 60.8332Z" stroke="#B165FB" stroke-width="4" stroke-linecap="round" stroke-linejoin="round"/>
<path d="M100.148 52.288C99.404 52.288 98.816 52.084 98.384 51.676C97.976 51.244 97.772 50.632 97.772 49.84V29.068C97.772 28.276 97.976 27.676 98.384 27.268C98.816 26.836 99.428 26.62 100.22 26.62H112.784C113.408 26.62 113.876 26.776 114.188 27.088C114.5 27.4 114.656 27.844 114.656 28.42C114.656 29.02 114.5 29.488 114.188 29.824C113.876 30.136 113.408 30.292 112.784 30.292H102.38V37.456H112.028C112.628 37.456 113.084 37.612 113.396 37.924C113.732 38.236 113.9 38.68 113.9 39.256C113.9 39.856 113.732 40.324 113.396 40.66C113.084 40.972 112.628 41.128 112.028 41.128H102.38V49.84C102.38 51.472 101.636 52.288 100.148 52.288ZM116.27 52.288C115.694 52.288 115.226 52.156 114.866 51.892C114.53 51.628 114.326 51.28 114.254 50.848C114.182 50.392 114.266 49.888 114.506 49.336L124.01 28.276C124.322 27.58 124.694 27.088 125.126 26.8C125.582 26.488 126.098 26.332 126.674 26.332C127.226 26.332 127.718 26.488 128.15 26.8C128.606 27.088 128.99 27.58 129.302 28.276L138.842 49.336C139.106 49.888 139.202 50.392 139.13 50.848C139.058 51.304 138.854 51.664 138.518 51.928C138.182 52.168 137.738 52.288 137.186 52.288C136.514 52.288 135.986 52.132 135.602 51.82C135.242 51.484 134.918 50.98 134.63 50.308L132.29 44.872L134.234 46.132H119.042L120.986 44.872L118.682 50.308C118.37 51.004 118.046 51.508 117.71 51.82C117.374 52.132 116.894 52.288 116.27 52.288ZM126.602 31.624L121.562 43.612L120.626 42.46H132.65L131.75 43.612L126.674 31.624H126.602ZM151.274 52.36C150.218 52.36 149.162 52.276 148.106 52.108C147.05 51.964 146.054 51.736 145.118 51.424C144.182 51.088 143.342 50.68 142.598 50.2C142.166 49.912 141.866 49.564 141.698 49.156C141.53 48.748 141.47 48.352 141.518 47.968C141.59 47.56 141.746 47.212 141.986 46.924C142.25 46.612 142.574 46.42 142.958 46.348C143.342 46.276 143.762 46.384 144.218 46.672C145.274 47.296 146.39 47.752 147.566 48.04C148.742 48.328 149.978 48.472 151.274 48.472C153.17 48.472 154.55 48.16 155.414 47.536C156.278 46.888 156.71 46.06 156.71 45.052C156.71 44.212 156.398 43.552 155.774 43.072C155.174 42.592 154.13 42.196 152.642 41.884L148.682 41.056C146.402 40.576 144.698 39.772 143.57 38.644C142.466 37.492 141.914 35.98 141.914 34.108C141.914 32.932 142.154 31.864 142.634 30.904C143.114 29.944 143.786 29.116 144.65 28.42C145.538 27.724 146.582 27.196 147.782 26.836C149.006 26.452 150.35 26.26 151.814 26.26C153.254 26.26 154.622 26.44 155.918 26.8C157.214 27.16 158.378 27.688 159.41 28.384C159.794 28.648 160.046 28.972 160.166 29.356C160.31 29.74 160.346 30.124 160.274 30.508C160.202 30.868 160.034 31.18 159.77 31.444C159.506 31.708 159.17 31.864 158.762 31.912C158.378 31.96 157.934 31.84 157.43 31.552C156.542 31.048 155.642 30.688 154.73 30.472C153.818 30.256 152.834 30.148 151.778 30.148C150.674 30.148 149.726 30.304 148.934 30.616C148.142 30.928 147.53 31.372 147.098 31.948C146.69 32.5 146.486 33.16 146.486 33.928C146.486 34.792 146.774 35.488 147.35 36.016C147.926 36.52 148.91 36.916 150.302 37.204L154.226 38.032C156.602 38.536 158.366 39.328 159.518 40.408C160.694 41.488 161.282 42.928 161.282 44.728C161.282 45.88 161.042 46.924 160.562 47.86C160.106 48.796 159.434 49.6 158.546 50.272C157.682 50.944 156.638 51.46 155.414 51.82C154.19 52.18 152.81 52.36 151.274 52.36ZM173.134 52.288C172.39 52.288 171.814 52.084 171.406 51.676C171.022 51.244 170.83 50.656 170.83 49.912V30.472H163.81C163.186 30.472 162.694 30.304 162.334 29.968C161.998 29.608 161.829 29.128 161.829 28.528C161.829 27.904 161.998 27.436 162.334 27.124C162.694 26.788 163.186 26.62 163.81 26.62H182.458C183.082 26.62 183.562 26.788 183.898 27.124C184.258 27.436 184.438 27.904 184.438 28.528C184.438 29.128 184.258 29.608 183.898 29.968C183.562 30.304 183.082 30.472 182.458 30.472H175.438V49.912C175.438 50.656 175.246 51.244 174.862 51.676C174.478 52.084 173.902 52.288 173.134 52.288ZM194.973 52.36C193.917 52.36 192.861 52.276 191.805 52.108C190.749 51.964 189.753 51.736 188.817 51.424C187.881 51.088 187.041 50.68 186.297 50.2C185.865 49.912 185.565 49.564 185.397 49.156C185.229 48.748 185.169 48.352 185.217 47.968C185.289 47.56 185.445 47.212 185.685 46.924C185.949 46.612 186.273 46.42 186.657 46.348C187.041 46.276 187.461 46.384 187.917 46.672C188.973 47.296 190.089 47.752 191.265 48.04C192.441 48.328 193.677 48.472 194.973 48.472C196.869 48.472 198.249 48.16 199.113 47.536C199.977 46.888 200.409 46.06 200.409 45.052C200.409 44.212 200.097 43.552 199.473 43.072C198.873 42.592 197.829 42.196 196.341 41.884L192.381 41.056C190.101 40.576 188.397 39.772 187.269 38.644C186.165 37.492 185.613 35.98 185.613 34.108C185.613 32.932 185.853 31.864 186.333 30.904C186.813 29.944 187.485 29.116 188.349 28.42C189.237 27.724 190.281 27.196 191.481 26.836C192.705 26.452 194.049 26.26 195.513 26.26C196.953 26.26 198.321 26.44 199.617 26.8C200.913 27.16 202.077 27.688 203.109 28.384C203.493 28.648 203.745 28.972 203.865 29.356C204.009 29.74 204.045 30.124 203.973 30.508C203.901 30.868 203.733 31.18 203.469 31.444C203.205 31.708 202.869 31.864 202.461 31.912C202.077 31.96 201.633 31.84 201.129 31.552C200.241 31.048 199.341 30.688 198.429 30.472C197.517 30.256 196.533 30.148 195.477 30.148C194.373 30.148 193.425 30.304 192.633 30.616C191.841 30.928 191.229 31.372 190.797 31.948C190.389 32.5 190.185 33.16 190.185 33.928C190.185 34.792 190.473 35.488 191.049 36.016C191.625 36.52 192.609 36.916 194.001 37.204L197.925 38.032C200.301 38.536 202.065 39.328 203.217 40.408C204.393 41.488 204.981 42.928 204.981 44.728C204.981 45.88 204.741 46.924 204.261 47.86C203.805 48.796 203.133 49.6 202.245 50.272C201.381 50.944 200.337 51.46 199.113 51.82C197.889 52.18 196.509 52.36 194.973 52.36ZM211.24 52.288C210.496 52.288 209.92 52.084 209.512 51.676C209.128 51.244 208.936 50.656 208.936 49.912V28.708C208.936 27.94 209.128 27.352 209.512 26.944C209.92 26.536 210.496 26.332 211.24 26.332C211.984 26.332 212.548 26.536 212.932 26.944C213.34 27.352 213.544 27.94 213.544 28.708V37.204H226.612V28.708C226.612 27.94 226.804 27.352 227.188 26.944C227.596 26.536 228.172 26.332 228.916 26.332C229.66 26.332 230.224 26.536 230.608 26.944C231.016 27.352 231.22 27.94 231.22 28.708V49.912C231.22 50.656 231.016 51.244 230.608 51.676C230.224 52.084 229.66 52.288 228.916 52.288C228.172 52.288 227.596 52.084 227.188 51.676C226.804 51.244 226.612 50.656 226.612 49.912V41.056H213.544V49.912C213.544 50.656 213.352 51.244 212.968 51.676C212.584 52.084 212.008 52.288 211.24 52.288ZM239.084 52.288C238.34 52.288 237.764 52.084 237.356 51.676C236.972 51.244 236.78 50.656 236.78 49.912V28.708C236.78 27.94 236.972 27.352 237.356 26.944C237.764 26.536 238.34 26.332 239.084 26.332C239.828 26.332 240.392 26.536 240.776 26.944C241.184 27.352 241.388 27.94 241.388 28.708V49.912C241.388 50.656 241.196 51.244 240.812 51.676C240.428 52.084 239.852 52.288 239.084 52.288ZM249.244 52.288C248.5 52.288 247.924 52.084 247.516 51.676C247.132 51.244 246.94 50.656 246.94 49.912V28.96C246.94 28.192 247.144 27.616 247.552 27.232C247.96 26.824 248.536 26.62 249.28 26.62H257.956C260.74 26.62 262.888 27.316 264.4 28.708C265.912 30.1 266.668 32.044 266.668 34.54C266.668 37.036 265.912 38.992 264.4 40.408C262.888 41.8 260.74 42.496 257.956 42.496H251.548V49.912C251.548 50.656 251.356 51.244 250.972 51.676C250.588 52.084 250.012 52.288 249.244 52.288ZM251.548 38.86H257.236C258.868 38.86 260.104 38.5 260.944 37.78C261.784 37.036 262.204 35.956 262.204 34.54C262.204 33.124 261.784 32.056 260.944 31.336C260.104 30.616 258.868 30.256 257.236 30.256H251.548V38.86Z" fill="white"/>
</svg>
