<svg xmlns="http://www.w3.org/2000/svg" width="160" height="77" fill="none"><path fill="#2A5687" d="M69.507 34.457a5.45 5.45 0 0 0-2.39-2.347q-1.52-.84-3.605-.84-3.606-.001-5.778 2.434-2.172 2.391-2.172 6.42 0 4.295 2.26 6.73 2.301 2.39 6.298 2.39 2.737 0 4.605-1.416 1.911-1.417 2.78-4.073h-9.427v-5.579h16.16v7.04q-.824 2.834-2.823 5.268-1.954 2.436-4.996 3.941-3.04 1.505-6.863 1.505-4.519 0-8.08-1.992-3.52-2.037-5.518-5.623-1.955-3.586-1.955-8.19 0-4.605 1.955-8.192 1.998-3.63 5.517-5.623 3.519-2.036 8.037-2.036 5.474 0 9.21 2.7 3.78 2.701 4.996 7.483z"/><path fill="#72B5FF" d="m73.066 47.62-.078-.617v-1.04l-.155-1.231v-.23l.039-.232.194-.23.038-.193v-.539l.04-.039.077-.038h.155l.039-.039.116-.154-.039-.115-.116-.154-.078-.154.04-.193.077-.115.116-.039.155.039.078.038.116.116.078.038.038.039h.039l.039-.039.077-.077h.04l.115-.077-.116-.154-.233-.27v-.153l.194-.27.04-.192v-.193l.077-.154.077-.154.155-.115.272-.192.155-.116.039-.115.038-.231.117-.116.116-.038.155-.116.194-.23.155-.078.31.116h.194l.194-.077.155-.077.078-.116.194-.308.077-.077h.039v-.077l.039-.077v-.077l.038-.038-.038-.077v-.154l-.039-.116-.078-.115v-.231h.04l.193-.154.194-.231.97-1.386.232-.115.233-.078 1.202-.23.194-.039.232-.154.155-.077.155-.077.194-.038.737.038.504.077.272-.038 1.628-.655.155-.038.117-.077.116-.077.116-.154h.039l.078-.039h.155l.038.039v.038l.04.039.115.308.078.154.271.308.117.154.116.077h.116l.117-.077 1.28-1.27.232-.27.116-.116.155-.115.892-.347.543-.308.272.039.465.115.31.039 1.59-.077 1.939.077.504-.039.31.039.349.077.349.154.194.154.116.038v.039l.078.038h.349l.116-.038h.039l.038.038v.039l.04.038.038.039.078.038.077.039h.116l.272.038.232.077.04.039h.154l.156-.039 1.938-1.04.117-.115.116-.154.116-.27.078-.115.155-.154.194-.115.93-.346.039-.039.039-.077.039-.038.038-.039h.078l.039-.038.039-.039.038-.077.039-.038.116-.039.078-.038.039-.039.077-.115.039-.039.116-.077.117-.038.039-.077h.038l.155-.039-.193-.385-.039-.192v-.193l-.039-.038-.078-.116-.038-.038-.039-.116v-.115l-.039-.077-.039-.116-.038-.077-.039-.192-.039-.077v-.193l.078-.077v-.154l.038-.077v-.038l.078-.077v-.039l.039-.154v-.077l.038-.038.039-.077.078-.116.077-.154.039-.038.078-.039.038-.038.039-.039.039-.038v-.577l-.039-.116-.077-.192-.039-.078-.078-.038-.077-.038-.272-.154-.038-.039h-.233l-.039-.038-.116-.077h-.155l-.117.038-.038.039h-.039l-.039.038-.077.077v.039h-.156l-.038-.039-.039-.038-.31-.347v-.077l-.039-.077V25.6l.039-.077v-.116l.038-.077.078-.154V25.1l.078-.192h.077l.116.077h.078l.039.038.039.039.038-.039h.078l.039-.038v-.039l-.039-.038v-.039l.039-.038.038-.039.039-.038h.039l.039-.116V24.6l-.039-.077v-.077l.039-.077.038-.077.039-.039.039-.038.039-.039h.116l.039-.038.077-.116.117-.077.039-.077v-.038l.038-.039-.038-.077v-.038h.077v-.116l.039-.038.077-.039v-.038l.039-.039h.039l.039-.038h.039v.038h.116l.039-.038.038-.039.039-.038.039-.154.039-.039.039-.038.116-.116.039-.038.038-.039h.155l.039-.038-.039-.077-.116-.154-.039-.039v-.115l.039-.039v-.038l.039-.038.039-.039.038-.039.078-.076.039-.039h.116l.039.038h.077l.039-.038h.039l.039-.039v-.269l-.078-.23-.077-.193-.039-.077-.039-.077-.039-.308-.038-.039-.039-.077-.078-.115-.039-.077-.155-.54-.116-.269-.039-.077-.116-.27-.039-.038-.077-.038h-.039v-.039l-.078-.115-.038-.039-.039-.038-.117-.039h-.038l-.039-.038-.039-.077-.039-.039-.038-.038-.078-.039-.155-.038-.155-.077-.078-.039-.232-.308-.039-.076-.078-.154v-.039h-.038v-.039l.155-.615v-.039l.31-.27.039-.038.077-.192.039-.039.039-.038v-.039l.038-.038.117-.231.194-.462v-.039l.038-.115-.116-.655v-.077l.039-.077.194-.423.039-.27.232-.115h.039l.194.038h.194v-.038l.077-.039.039-.077.078-.077.038-.038v-.039l.117-.077h.038l.039-.038.155-.347.039-.077h.039l.039-.038h.038l.039.038v.039h.039v.038h.078l.038.039h.155l.117-.077.077-.039.078-.038.039-.039h.038l.039-.038h.078l.349.038h.038l.039-.038.117-.039.038-.038h.233l.078-.039.155-.077.038-.038h.117l.194-.116.038-.038v-.077l.039-.077-.077-.346.038-.193v-.077l-.038-.077-.078-.23-.039-.078-.116-1.04v-.076h-.039l-.039-.039-.193-.038h-.039l-.078-.077-.039-.039v-.038h-.038v-.039l-.078-.924.039-.077.039-.077.038-.038.039-.039.117-.115.077-.077.039-.077.116-.154.078-.077.077-.154v-.115l-.038-.116-.117-.23-.039-.155-.038-.038-.039-.039h-.116l-.156.039h-.038V7.93l.271-1.309v-.038l.039-.077v-.039l.039-.038.038-.039.078-.077.039-.038.155-.039.077-.038.311-.039.193.039.194.038.078.039.775.385.156.077h.038l.078-.039h.077l.194-.154.155-.115v-.077l-.038-.193-.039-.23v-.27l-.039-.039-.077-.077-.039-.077v-.154l.116-.192.039-.039v-.115l-.039-.039-.116-.154v-.038l-.039-.039v-.23l.039-.039.077-.154.388-.462.039-.038.077.038.117.039.155.115.62.308.117.116.155.115.232.27v.038l.039.077.155.462v.038h.078l.116.039h.465v.038l.155.116h.078l.349-.077h.194l.116.038.039.039.039-.039.116-.077.039-.077.077-.154.078-.077.194-.115.039.077v.077l.116.192v.27l.039.038.194.27v.192l-.117.116-.039.038-.116.347-.077.27-.156.346-.155.308-.077.115-.039.039-.039.154-.039.038v.077l.039.039.039.038h.078l.077-.038.078-.116.038-.038.078-.039.388-.192h.039l.038-.039.039-.038.078-.116.038-.038.039-.077.078-.154.039-.039.038-.038h.155l.427.038.116.039.582.077h.116l.272-.154.271-.27.078-.115.038-.154.039-.116V6.43l.155-.077.117-.077.116-.116.039-.038.038-.077.039-.039.078-.115.077-.077.078-.077v-.077l.039-.039.038-.038h.272l.039.038.116.039h.078l.193-.039.156-.077.31-.154.194-.192.116-.116.039-.038h.077l.117-.039.077-.038h.039l.077-.154.039-.039.039-.038.078-.077.038-.039.039-.115.039-.038.271-.231.039-.039v-.038l.039-.077.039-.039v-.038h.038l.078-.039h.271l.039-.038.116-.039h.194l.039.039.039-.039.155-.038 1.706-.963.194-.154v-.115l.039-.039.116-.192v-.154h.078l.077-.039.078-.038.814-.5.116-.155.155-.115.039-.039.039-.038.039-.039.116-.038.194-.154.233-.116.077-.038.117-.077.736-.231.466-.27.271-.038.078-.039.077-.038.155-.116.039-.038h.116l.117.038h.077l.078-.038h.038l.039.038.155.039h.078l.039-.039V.077l.038-.039.039-.038h.078l.077.077.078.077.116.077.078.038h.077l.078-.038.039.038h.038l.039.039h.117l.077-.039h.155l.078.039h.155l.116.077h.155l.117-.077h.038V.269l.039.039h.078l.116.077.155.115.039.039h.271l.078-.039h.077l.078.039h.039l.116.077.078.038h.038l.039-.038h.078l.039.038.077.039.078.077.116.038.039.039-.117.192-.155.193-.077.27-.117.346-.116.23-.039.155-.038.077-.078.27.039.115.039.038.038.116.039.038v.27l-.039.038v.077l.039.116v.038l.039.039.077.077.039.038.078.039.077.038.698.116.039.038.116.077.039.077.039.039 1.667.423.349-.115h.039l.039-.039.039-.077.038-.038.039-.077.116-.077.039-.039v-.038l.039-.116v-.038h.039l.039-.039.038-.038.815-.385.232-.039.155-.077h.039l.116-.038h.272l.116.038.233.039.155.077.349.077h.233l.349.154h.077l.116-.039.117.039.039.038.077.039.116.077.039.077.039.038.077.193.039.038.039.039.62.462.156.115.349.308.077.077.388.23.039.078.077.077.039.038.155.077.078.039.077.038h.078l.31-.077h.039l.038.039.117.115.271.077.194.154.078.077.077.116.117.038.232.193.97.462.155.077.194.077.387.077h.155l.117-.077h.077l.078.077.039.077.038.038.039.039.194.077.039.038.077.116.039.038v.039l.039.038h.039l.077.039.039-.039.194-.038.039-.039h.155l.194-.038h.116l.233.077h.077l.039-.039h.039l.077-.038.039-.039.271-.115.117-.077.039-.077h.038l.039-.039h.233l.039-.038h.038l.117-.077 2.326 2.117 1.086 1 .233 1.772.077.23.233-.038.349.077.387.077h.039l.039.039.233.154.155-.039.349-.192.31-.077.194-.077.271-.231.078-.116.039-.038h.077l.039-.039.077-.038.039-.039h.117l.077.039.194.115.078.039h.155l.077-.039.155-.077h.155l.078.039.116.077.039.038.039.039.194.27h.038l.039.038.117-.039h.077l.155-.077.078-.038.232-.077h.039l.078.038.155.039.388.192.077.077.155.27.039.038h.155l.039-.038v-.039h.194v-.038l.155-.039.039-.038.077.038.621.27.232.077.194.038h.155l.117-.038h.038l.427-.039.077.039.039.038h.078l.039.116v.038l-.039.039v.038l.039.039v.038h.077l.116.038.039.039v.154l.039.038h.116l.078-.038h.116l.116.038.117.077.232.154.078.116.078.038.038.154.039.039.039.038.039.039.194.115.077.039h.194l.116-.039.194.077.039.077v.039l.039.077.077.115.039.077.116.077.039.039.039.038v.039l.039.115v.039l.116.154v.269l-.078.039-.077.038-.039.039-.039.077-.116.27-.039.115-.039.23v.193l-.077.231-.116.116-.039.077-.194.154-.116.115-.543.308-.582.886-.077.115.038.077v.154l-.038.038h-.156l-.077-.038h-.194l-.426.154-.039.038-.039.039-.039.038-.039.154v.077l-.038.039.038.27v.307l-.116.5v.04l.039.038v.077l.155.154.039.077.077.154v.231l-.077.038-.117.077-.038.039-.078.038v.039l-.039.077h-.038l-.117.038h-.775l-.272-.038-.194-.077h-.077l-.039.038-.039.116-.038.038-.156.154-.038.039v.038l-.039.077-.233 1.04-.116.346-.039.154v.115l.078.347.038.077-.038.077v.577l-.039.039h-.039l-.116.077h-.039v.038l-.078.116v.115l-.038.385v.308l.038.039.117.038h.077l.039-.038v-.039l.078-.154.038-.038v-.039h.039l.078-.038h.077l.039-.039h.078l.038.077v.039l-.038.077-.117.154v.038l-.038.039v.077l.038.038.039.039.039-.039h.039l.077-.038.039-.039h.039l.039.039.038.038.039.116.039.077v.115l-.116.27v.192l.038.192v.039l.039.038.116.039h.117l.039-.038h.271l.078.038.038.077.039.077.078.27.038.077.039.076.039.039.349.192.039.039.038.038.078.116v.077l.039.077.039.038.077.077.31.154.117.039.194.192.077.231.078.154v.193l-.039.192-.039.077-.039.039-.116.154-.039.077-.039.077-.038.038.038.154.156.347-.078-.039-.155-.077h-.039l-.039-.038-.077-.039v-.038h-.039l-.039-.039h-.349l-.039-.038-.038-.039-.039-.038v-.039l-.039-.038h-.233l-.077-.077-.388-.116h-.039l-.038-.038v-.039l-.039-.077v-.038h-.039l-.039.038-.077.039v.115l.039.154v.039l-.039.038-.039.039h-.155l-.039-.039-.039-.038-.155-.154h-.194l-.271.077h-.116l-.078.077-.349.192-.116.077-.117.039-.077-.039h-.116l-.233-.077h-.078l-.077.039-.117.077-.116.038-.116.077h-.117l-.038-.038-.078-.039-.039-.038h-.116l-.155.038-.078.039h-.077l-.039-.039h-.039l-.038-.038-.078-.077h-.078l-.038.038v.116l.038.038 1.047 1.001h.039v.116l.039.076v.232l-.039.038h-.504l-.078-.038-.077-.078-.039-.038-.116-.038-.039-.039-.077-.115h-.039l-.039-.039h-.233l-.077.039-.078.076-.504.462h-.31l-.039.039-.039.077-.077.115-.155.308-.155.193-.194.154v.038l-.039.077.039.116v.077l.077.115v.116l-.155.308.078.038h.039l.116-.077.232-.23.039.076.078.039.077.038.117.077.077.039.078.077.039.038.116.154v.039l.039.077.038.154-.038.115v.231l-.039.347-.078.423-.077.385v.115l.039.039v.039h.038l.039.038h.078l.426.038h.078l.039.039v.038l.038.039v.038l.039.039.078.539v.154l-.039.077-.039.077v.038l-.039.039-.077.077h-.039l-.116.038-.155.039-.854.038-.077-.038-.039-.039v-.077l-.039-.038h-.698l-.077.038-.078.039h-.038l-.039.038-.039.077v.039l-.039.038v.077l.039.039.116.077.078.154v.038l.039.039.116.038.078.039.077.038h.116l.078-.077.039-.038.077-.039h.194l.039.039.039.038h.038l.078.154v.039h.039l.039.038.116.039.039.038-.039.077v.154h.039l.077.039h.039l.039.038.039.039v.038l-.039.154-.155.27v.115l.038.077h.039l.078.039h.077l.039.038.388.385.039.077.116.154.039.039.039.23v.501l-.039.192v.077l.039.078h.038v.038l.039.038v.077l-.039.231v.308l-.038.039-.156.423-.038.116v.077l.038.077v.154l-.038.038-.039.039-.039.077-.077.077-.078.038-.039.039-.077-.039h-.078l-.155-.115h-.039l-.039.038-.038.077v.077l.038.039.117.23v.078l-.039.077-.233.27-.038.038h-.117l-.039.038-.077.077-.039.116-.077.038-.233.154h-.039l-.077.077-.039.231-.116.809v.192l-.039.462-.039.038-.039.039-.116.077-.039.038-.155.193-.078.038h-.232l-.039.039-.039.038-.077.116-.078.077v.038l-.039.039v.308l-.038.115-.155.54-.078.269v.192l-.194.462-.039.039-.038.038-.117.039-.116.077h-.233l-2.171-.039-.117.039-.077.038-.039.039-.077.077v.038l-.117.385-.039.077-.077.038-.233.154-.155.078-.039.076-.077.078-.039.038v.192l.039.039.039.116.038.115.039.038.039.039.271.115-.116.385v.231l.039.039.077.192v.039l-.038.038-.039.039-.078.038-.038.039v.038l-.117.347-.039.077-.116.154v.077h.116l.078-.039.039-.038h.039l.038.038.039.039v.115l-.194.231-.039.077-.155.385-.077.077-.039.077h-.039l-.039.039.039.077v.038l.117.077-.078.077-.039.039-.039.038-.116.039h-.077l-.078.038-.078.193.039.077-.039.038-.116.231-.155.308-.039.038-.039.078-.077.038-.039.038h-.194l-.038-.038v-.038h-.078l-.155.038h-.233l-.039-.077h-.038l-.078.038-.039.078-.077.076-.078.039-.077.038-.039.039-.039.077.039.115v.077l.039.039h.038l.039.038h.155l.039.039v.077l-.039.154-.155.308-.077.115-.117.154-.038.077-.039.154-.039.077-.039.039-.077.077v.038l-.039.077v.193l.039.077v.077l-.039.077-.194.423-.039.154-.077.462-.427.308-.039.038-.116.232v.538l-.039.077v.039l-.349.577-.155.308-.039.231v.116h.156l.077.038.078.039h.116l.039-.039h.155l.077.039v.038h.039l.039.077.039.077.039.039-.039.115-.117.231-.077.039-.155.154-.078.038h-.116l-.116-.077h-.117l-.077.077-.078.077-.155.116-.426.115-.737.424-.97.346-.581.346-1.047.424-.117.077-.271.231-.116.077-.504.038-.155.116-.078.115-.039.116-.077.154-.039.038-.194-.077h-.116l-.078.077-.077.116-.117.038v-.077l-.038-.038v-.116l.038-.038v-.039l.039-.038.039-.039v-.192h-.039l-.039-.039h-.387l-.117.039-.116-.039h-.078l-.038-.038-.078-.038-.039-.039h-.504l-.039-.038h-.194l-.193.038-.621.346-.116.039-.039.038h-.349l-.116.039-.117.038h-.116l-.039-.038h-.038l-.039-.039-.078-.077-.039-.038-.038.038-.078.039-.039.038h-.116l-.077-.038h-.117l-.077.077-.078.077h-.039l-.038-.039-.078-.038h-.116l-.155.077h-.078l-.116.038-.039-.038h-.039l-.039-.039-.038-.038v-.039h-.039l-.039-.038h-.078l-.232.077-.427.192-.116.077-.078.077-.116.039-.271.077-.931.385h-.039l-.077.038h-.039l-.078.039-.155.192-.077.039-.737.423-.194.039h-.116l-.039-.039-.039-.038-.039-.039h-.155l-.349.039h-.116l-.388.077-.077-.039h-.155l-.078.039-.62.346-.039.039h-.039l-.116.038-.194.039-.233.038h-.077l-.039.039-.116.115-.117.193-.038.038v.039h-.117l-.155-.039-.194-.038H122l-.349.115-.155.077-.31.231-.504.27-.194.076h-.465l-.078.04-.116.076-.078.038h-.077l-.155-.038-.078.038-.465.193-.078.077-.426.231-.039.038-.155.116-.117.116-.038.038h-.194v.192l-.039.077-.078.039-.038.038-.582.154-.349.193-.078.038h-.038l-.039-.038-.039-.039v-.192l-.039-.039v-.038l-.077-.077h-.039l-.039-.039h-.116l-.039.039-.116.192-.039.039-.077.038-.156.116-.077.038h-.078l-.271-.038-.039-.039v-.038l-.039-.039V68.6l-.038-.038h-.117l-.155.115-.194.116-.077.038h-.155l-.039-.038h-.039l-.039-.039v-.115l.039-.039.039-.038.077-.077.039-.077.039-.077.039-.039-.039-.038h-.116l-.311.038h-.155l-.077.077.039.039v.038l.038.039.117.115v.077l.038.039-.038.077-.039.038-.659.424h-.039v.154h.039l.038.038h.466l.039.039.038.038v.385l-.038.039-.039.077-.039.038-.039-.038-.077-.039h-.117v.039l-.038.038.038.077v.077l.039.039v.038l-.039.077v.039l-.077.077h-.117l-.038-.039v-.038l-.039-.039v-.038l-.039-.039h-.077l-.039.039-.078.038-.077.116-.039.038-.039.077h-.077l-.078-.077-.077-.038-.078-.039v-.038l-.039-.039-.039-.077v-.038l-.077-.039-.039.039v.038l-.077.077-.039.039h-.039l-.078-.039h-.155v.039l-.077.077v.038l-.078.077-.077.039-.078.038-.077.039-.194.038-.621.116-.155-.039-.039-.038v-.077l.039-.039.039-.038v-.077l-.039-.039-.039-.038h-.038l-.272.038-.039.039h-.038l-.039.038-.039.039-.077.038-.078.039h-.039l-.077-.039-.039-.038h-.039l-.039.038-.038.039-.039.038h-.155l-.078-.038-.077-.039h-.156l-.077-.038h-.039l-.039-.039-.038-.038-.039-.116-.039-.077v-.462l.078-.115-.039-.077-.078-.077-.465-.27-.116-.115-.233-.154v-.039l-.039-.077.039-.038v-.039h.039l.077-.077.388-.115.039-.039.039-.038.038-.077v-.039l-.116-.154-.039-.038-.038-.077v-.154l.038-.077h.039l.078-.038.038-.039v-.038l.039-.078v-.038h-.271l-.155-.038-.078-.039-.349-.231-.155-.077h-.155l-.039-.038-.039-.039v-.27l-.038-.038h-.039l-.272-.038-.387-.154-.078-.077-.077-.039v-.077l.038-.154-.038-.038v-.077l-.272-.308-.039-.039-.038-.077.038-.192.272-.655.155-.23.116-.078.194-.192.039-.077v-.039l-.194-.27-.039-.038h-.039l-.038-.038h-.311l-.038-.039-.039-.038-.039-.077-.039-.039.039-.038.039-.039h.155l.039-.038.039-.039v-.038l-.039-.039-.039-.077v-.038l.039-.039.039-.076.038-.039h.155l.078-.038.039-.078.039-.038v-.038l-.156-.232-.193-.461v-.116l.077-.077.039-.077v-.077l-.039-.038v-.039h-.039l-.038-.038-.039-.039-.039-.115v-.116l.039-.038.039-.039.038-.077.155-.077.039-.038v-.116l.155-.654.039-.077h.039l.194.038h.039l.038-.038.039-.039.155-.423.039-.039v-.038h.039l.077-.077.039-.039v-.038l-.039-.039v-.23l.039-.116.039-.077v-.039h.039l.077-.077.039-.038v-.039h-.039v-.077l-.039-.038-.038-.385v-.038l-.039-.039-.039-.038-.039-.039-.039-.039h-.038l-.117-.038-.077-.038h-.116l-.039.038h-.194l-.039-.077v-.038l-.039-.078h-.038l-.117-.038-.039-.039-.038-.077v-.153h-.117l-.077.077-.078.115h-.039l-.038.038-.039-.038h-.039l-.155-.115-.194-.116-.194-.038-.039-.039h-.038l-.078.039-.232-.039-.039.039h-.039v.038l-.039.077-.039.038-.038.039h-.039l-.039.038h-.116l-.039.039-.078.038-.038.039h-.078l-.62.077-.117-.038-.077-.039v-.115l.039-.193.038-.038-.038-.077v-.077l-.156-.231-.038-.077-.039-.193-.039-.077-.116-.346-.078-.231v-.077h-.077l-.039-.039-.078-.038-.349-.462-.038-.077-.039-.039v-.308l-.155-.539v-.154l.039-.077.038-.038-.038-.039-.078-.077-.078-.077-.077-.154-.078-.077-.038-.038h-.117l-.039-.038-.077-.078v-.038l-.039-.077.078-.154.038-.616.078-.154.116-.077.039-.038.039-.039.077-.154.039-.115v-.077l.039-.193.039-.038.039-.039h.077l.078-.038.038-.039.078-.077v-.077l.039-.077v-.192l-.194-.693-.039-.077-.039-.039-.038-.038v-.039l-.039-.038-.776-.347-.077-.077-.194-.23-.039-.04v-.115l.039-.077v-.115l.039-.192.038-.501v-.154l.039-.077v-.038h.039l.116-.116.039-.038v-.039l.039-.077.039-.115v-.27l-.078-.154-.077-.192-.311-.231-.077-.116-.543-.385h-.116l-.078-.038-.116-.077-.194-.193v-.038l.039-.039v-.154l.038-.038v-.077l-.038-.077-.039-.039-.155-.115-.078-.077-.116.077-.194.077-.155.038-.194.039-.194.038-.077.116-.078.115-.116.116-.155.038-.155-.077-.194-.27-.156-.153-.116-.039-1.008.039-.078.038-.077.077-.039.077-.077.039v.077l.077.154v.154l-.039.192-.077.193-.117.077-.077.038h-.155l-.078-.038-.038-.116-.04-.077v-.192l-.077-.116-.077-.077-.078-.038-.116-.039v.385l-.039.154-.078.154-.038.039-.117.038h-.038l-.04.039-.038.077-.039.038-.116.077h-.155l-.233-.154-.31-.115-.155-.116-.078-.192-.077-.231-.078-.154-.194-.154-.155.23.194.578-.194.193h-.116l-.272-.154-.155-.077h-.659l-.349.077-.194.038-.077.039-.078.038-.62-.077-.155.077-.272.193-.116.038-.155-.038-.465-.077h-.117l-.31.038h-.388l-.194.116-.077.192-.078.231-.077.231-.117.154v.077l.04.077.038.154v.424l.039.115.038.23.04.116-.04.077-.232.193-.117-.077-.349-.154-.077-.077-.039-.654.039-.77-.078-.385-.193-.27-.272-.038-.233.192-.232.578-.155.23-.233.231-.271.116-.272-.116-.077-.115-.117-.308-.194-.27-.193-.384-.04-.154-.077-.385v-.193l.078-.23v-.078l.039-.115.038-.039h.04l.27-.115.04-.154-.078-.077-.155-.077-.155-.039-.194.039-.543.115-.155-.115-.698-.231-.388-.077h-2.637l-1.047-.154-2.52-.347-.194-.115-.271-.346-.194-.193-.233-.077h-.271l-.272.077-.271.154-.155.308-.582.577-.155.077-.194.077-1.357.5-.155.078-.465.385z"/><path fill="#1A62B2" d="M131.138 17.239 117.454 55.93h-11.76L92.01 17.24h10.002l9.562 29.211 9.617-29.211zM90.689 17.239V55.93h-8.893V17.24z"/><path fill="#2A5687" d="M46.225 26.032V55.93h-7.651V38l-7.025 17.93h-6.175l-7.07-17.973V55.93h-7.65L0 26.032h19.692l8.814 20.699 8.725-20.699z"/><path fill="#1E73D0" d="M96.833 60.352c.129.11 1.241.219 2.45.219s2.386.087 2.612.196c.226.131.516.59.677 1.05.161.458.452 1.202.661 1.639.403.896.468 1.158.21.94-.29-.24-.355.962-.097 2.186.145.656.258 1.333.242 1.486s.016.437.097.656c.064.219.064.853.016 1.42a18 18 0 0 0-.113 1.422c0 .306-.097.372-.516.284-.951-.197-2.434-.35-5.078-.48l-2.612-.154-.017 2.274c-.016 1.486-.064 2.076-.144 1.727-.065-.307-.13-.416-.146-.285-.016.153-.193.284-.419.284-.322 0-.403-.109-.403-.546 0-.59.42-.765.774-.284.145.197.194.065.177-.612 0-.46-.048-.722-.096-.59-.033.153-.258.284-.468.284-.306 0-.387-.11-.387-.547 0-.59.42-.765.774-.284.145.197.194.087.194-.546 0-.787-.017-.81-.565-.81h-.58l.097-3.672c.048-2.01.145-4.022.225-4.48.08-.438.113-1.006.065-1.247-.049-.24 0-.437.097-.437.096 0 .177-.131.177-.306 0-.765 1.483-1.312 2.096-.787m-.951 2.186c0 .284.016.284.128 0 .081-.175.194-.569.242-.875l.113-.546-.242.546c-.145.306-.242.7-.242.875m-.097.918c-.145.852-.403 6.973-.306 7.192.048.11.725.196 1.531.196h1.435v-3.65l-.806-.131c-1.322-.219-1.467-.416-1.419-1.858l.049-1.246 1.08-.066c.967-.065 1.096-.11 1.096-.48 0-.394-.113-.438-1.29-.438-1.193 0-1.29.022-1.37.48m2.821.066c0 .262.306.327 1.854.327 1.048 0 1.854-.087 1.854-.196 0-.284-.596-.394-2.305-.438-1.145-.021-1.403.044-1.403.306m1.21.896c.741.153 1.982.175 1.902.022-.032-.088-.548-.132-1.145-.132-.596.022-.935.066-.758.11m-1.194 4.569-.016 1.639h.839c.967.022 2.901.306 3.546.546l.452.154V69.86c0-1.356-.016-1.465-.323-1.356-.177.066-.322.023-.322-.087 0-.525-.306-.11-.387.569-.129.94-.419 1.005-.419.087 0-.372.064-.612.161-.525.081.066.161.022.161-.087 0-.131-.016-.24-.048-.263-1.37-.371-3.16-.808-3.354-.83-.225-.022-.274.262-.29 1.618"/><path fill="#1E73D0" d="M100.707 68.49c.228.5.25 1.068.054 1.198-.065.044-.119-.13-.13-.392a2.8 2.8 0 0 0-.206-.872c-.098-.24-.13-.414-.065-.414s.228.218.347.48M100.04 69.268c.465.213.343.426-.22.426-.318 0-.44-.045-.318-.146.147-.112.098-.112-.171 0-.49.213-.71.18-.71-.134 0-.213.123-.28.563-.28.318 0 .685.056.856.134"/><path fill="#1A62B2" d="M86.626 71.99c.031.038.063.383.063.728 0 .749-.365.806-.445.077-.063-.499-.317-.46-2.096.25l-1.033.402.826.058c.826.058 1.191.403.477.441-1.017.058-1.144.096-1.192.403-.047.288.064.346.747.346.62 0 .81.076.81.287 0 .25-.62.288-4.607.288s-4.606-.038-4.606-.288c0-.21.174-.287.635-.287.525 0 .635-.058.635-.384s-.11-.384-.635-.384c-.841 0-.81-.345.031-.441.604-.058.573-.077-.222-.096l-.905-.038.096.71c.062.498.047.652-.08.556-.126-.096-.19.019-.19.268 0 .442-.255 1.094-.54 1.459-.81.978-2.336.844-3.177-.288-.35-.46-.81-.518-.954-.115-.142.48-1.096 1.055-1.73 1.055-.717 0-1.463-.422-1.7-.96-.207-.48-.715-.498-.985-.038-.398.672-.986.998-1.749.998-.62 0-.857-.115-1.318-.595-.476-.518-.556-.71-.556-1.477 0-.825-.015-.864-.254-.5-.222.346-.238.327-.143-.364.063-.441.032-.71-.08-.71-.079 0-.158.25-.158.576v.576H57.62v-.576q0-.576-.238-.576c-.16 0-.24-.21-.24-.671v-.672l9.882-.019c5.448 0 12.056-.02 14.71-.038 2.652-.02 4.86 0 4.892.038m-8.006 1.496c.778.038 2.017.038 2.78 0 .778-.02.142-.058-1.383-.058s-2.16.039-1.397.058m-11.104.671c-.318.327-.239 1.247.143 1.689.793.882 2.366.057 2.113-1.113-.223-1.075-1.445-1.382-2.256-.576m4.447 0c-.475.538-.46 1.19.048 1.67.97.92 2.511 0 2.114-1.267-.27-.882-1.525-1.132-2.162-.403m-8.847 0c-.556.96 0 2.072 1.017 2.072 1.048 0 1.588-1.093 1.015-2.072-.189-.345-.395-.422-1.015-.422s-.826.077-1.017.422m14.233.192c-.048.326.159.346 2.653.346 2.637 0 2.716-.02 2.716-.403 0-.384-.064-.384-2.653-.326-2.383.057-2.669.095-2.716.383M39.362 71.683c.032.038.063.383.063.729 0 .748-.365.806-.445.076-.063-.498-.317-.46-2.096.25l-1.033.403.826.057c.826.058 1.192.403.477.442-1.017.057-1.144.096-1.192.403-.047.287.064.345.747.345.62 0 .81.077.81.288 0 .25-.62.288-4.607.288s-4.606-.039-4.606-.288c0-.211.174-.288.635-.288.525 0 .635-.058.635-.384s-.11-.383-.635-.383c-.841 0-.81-.346.031-.442.604-.057.573-.076-.222-.096l-.905-.038.096.71c.062.499.047.652-.08.556-.126-.096-.19.02-.19.269 0 .441-.255 1.094-.54 1.458-.81.979-2.335.844-3.177-.288-.35-.46-.81-.518-.953-.115-.143.48-1.097 1.055-1.732 1.055-.715 0-1.462-.422-1.7-.959-.206-.48-.714-.499-.984-.038-.398.671-.986.997-1.748.997-.62 0-.858-.115-1.319-.594-.476-.519-.556-.71-.556-1.478 0-.825-.015-.863-.254-.499-.222.346-.238.326-.143-.364.064-.441.033-.71-.08-.71-.079 0-.158.25-.158.576v.575h-3.971v-.575q0-.576-.238-.576c-.16 0-.24-.211-.24-.672v-.671l9.882-.02c5.448 0 12.056-.019 14.71-.038 2.652-.019 4.86 0 4.892.039m-8.006 1.496c.778.039 2.017.039 2.78 0 .778-.019.143-.057-1.382-.057s-2.16.038-1.398.057m-11.104.672c-.318.326-.239 1.247.143 1.688.794.883 2.367.058 2.113-1.113-.223-1.074-1.445-1.381-2.256-.575m4.447 0c-.475.537-.46 1.19.048 1.67.97.92 2.511 0 2.114-1.267-.27-.883-1.525-1.132-2.162-.403m-8.847 0c-.556.96 0 2.072 1.017 2.072 1.048 0 1.588-1.094 1.015-2.072-.189-.346-.395-.422-1.015-.422s-.826.076-1.017.422m14.233.192c-.048.326.159.345 2.653.345 2.637 0 2.716-.02 2.716-.403 0-.384-.063-.384-2.653-.326-2.383.057-2.669.096-2.716.384"/><path fill="#1A62B2" d="m66.097 74.05-.37.872c-.142.413-.985.534-1.17.194-.061-.145-.02-.17.103-.072.125.072.247-.073.287-.364.042-.291.33-.63.719-.825.658-.339.658-.315.431.194M70.557 73.87c-.295.144-.403.433-.295.842.079.481 0 .601-.433.601-.325 0-.65-.12-.728-.24-.109-.145-.272-.193-.38-.145-.106.072-.214-.024-.214-.216 0-.193.108-.289.243-.217.108.072.216-.024.216-.216 0-.241.187-.313.512-.241.27.072.594 0 .676-.144a.75.75 0 0 1 .512-.265c.19 0 .134.12-.109.24M60.238 73.829c.122.238.452.368.905.39.522 0 .661.064.452.194-.138.108-.417.39-.59.606-.262.324-.419.367-.679.194-.279-.194-.315-.324-.175-.649.122-.28.105-.432-.034-.475-.106-.044-.157-.195-.123-.347.053-.173.123-.151.244.087M91.608 71.422a3.3 3.3 0 0 1 1.331 2.64c0 .625-.016.645-.59.564-.37-.04-.606.02-.657.182-.169.484-1.18 1.068-1.871 1.068-.675 0-1.315-.363-1.737-.987-.135-.202-.421-.283-.792-.242-.674.06-.742-.202-.405-1.411.624-2.197 3.001-3.124 4.72-1.814m-2.68 1.35c-.827.685-.153 2.298.977 2.298.522 0 1.349-.826 1.349-1.33 0-.202-.169-.564-.371-.827-.439-.544-1.383-.624-1.956-.14"/><path fill="#1A62B2" d="M90.471 73.006c-.159.567.106.667.582.166.212-.233.238-.233.08.034-.133.2-.185.6-.106.867.185.568-.689 1.435-1.165 1.202s-.423-1.268.053-1.769c.212-.233.318-.534.238-.7-.08-.168 0-.3.16-.3.184 0 .264.233.158.5M98.449 72.117c.049.105.246.21.41.21.18 0 .559.276.838.593.427.486.542.803.608 1.69.049.804.016 1.1-.132 1.1-.115 0-.46.275-.772.634-.739.845-1.708.866-2.53.106-.311-.296-.689-.592-.853-.656-.247-.126-.28-.296-.197-1.12.148-1.332.542-1.966 1.494-2.389.986-.422 1.002-.422 1.133-.168m-1.397 1.69c-.427.55-.41 1.078.017 1.776.673 1.12 2.283.507 2.283-.867 0-.866-.427-1.331-1.265-1.331-.493 0-.805.126-1.035.422"/><path fill="#1E73D0" d="M102.599 72.786c0 .842-.013.842-.706.842-.652 0-.706-.056-.852-.842l-.147-.843h1.705z"/><path fill="#1E73D0" d="M103.684 73.1c0 .498-.395.68-.79.385-.393-.272-.393-.679 0-.905.592-.204.987.022.79.52M102.599 74.471c0 .842-.016.842-.845.842h-.86l.08-.842c.064-.814.095-.842.844-.842.765 0 .781.028.781.842"/><path fill="#72B5FF" d="M14.879 59.378h72.13a5 5 0 0 1 5 5v.727a5 5 0 0 1-5 5H14.88a5 5 0 0 1-5-5v-.727a5 5 0 0 1 5-5"/><path fill="#2A5687" d="M15.568 62.199h1.248v4.36h-1.248zM20.275 62.199h1.241v4.36h-.962l-1.722-2.193v2.192h-1.249v-4.36h.97l1.722 2.193zM23.957 66.652q-.774 0-1.283-.293a1.6 1.6 0 0 1-.711-.791l1.067-.554q.272.579.962.579.572 0 .572-.293 0-.194-.328-.311a8 8 0 0 0-.613-.169q-.67-.174-1.06-.485-.39-.318-.39-.878 0-.605.48-.978.489-.375 1.214-.374.613 0 1.087.256.475.255.726.74l-1.046.549q-.23-.486-.76-.486a.6.6 0 0 0-.342.08.24.24 0 0 0-.112.206q0 .144.168.243.175.1.67.23.355.094.571.175t.474.237q.258.15.384.392.125.237.125.56 0 .642-.509 1.003-.51.361-1.346.361M28.163 62.199q.739 0 1.241.43.502.429.502 1.095 0 .667-.502 1.096t-1.241.43h-.649v1.308h-1.248v-4.36zm0 1.993a.5.5 0 0 0 .348-.131.43.43 0 0 0 .147-.337.41.41 0 0 0-.147-.33.5.5 0 0 0-.348-.13h-.649v.928zM31.641 65.512h1.89v1.046h-3.138v-4.36h3.103v1.04h-1.855v.605h1.68v1.027h-1.68zM36.448 65.562q.341 0 .613-.131a.96.96 0 0 0 .419-.374l1.08.56q-.258.387-.683.648-.418.255-.927.343v.237a.7.7 0 0 1 .279.162.42.42 0 0 1 .125.317q0 .698-1.632.61v-.678q.663.044.663-.088 0-.093-.37-.124v-.424q-.934-.124-1.527-.747a2.12 2.12 0 0 1-.586-1.495q0-.97.719-1.619.724-.654 1.827-.654.662 0 1.227.28t.886.754l-1.081.554a.94.94 0 0 0-.419-.361 1.35 1.35 0 0 0-.613-.137q-.586 0-.949.33-.355.324-.355.853 0 .53.355.86.363.324.949.324M40.883 61.775q-.167-.1-.25-.08-.085.011-.085.205h-.836q0-.306.076-.523a.692.692 0 0 1 .523-.473.9.9 0 0 1 .356-.013q.18.03.37.118.167.1.25.087.091-.013.091-.205h.837q0 .305-.084.53a.74.74 0 0 1-.209.33.7.7 0 0 1-.307.142 1 1 0 0 1-.362.007 1.7 1.7 0 0 1-.37-.125m1.102 4.783-.21-.629h-1.624l-.21.63H38.59l1.61-4.36h1.521l1.61 4.36zm-1.513-1.588h.983l-.495-1.482zM47.693 65.998q-.74.653-1.813.653-1.074 0-1.82-.653-.74-.66-.74-1.62t.74-1.613q.746-.66 1.82-.66t1.813.66q.746.654.746 1.613 0 .96-.746 1.62m-2.755-.766q.376.33.942.33.564 0 .941-.33.377-.338.377-.854t-.377-.847q-.377-.336-.941-.336-.565 0-.942.336-.375.33-.376.847 0 .518.376.854"/><path fill="#fff" d="m55.198 66.876-1.576-4.36h1.367l.948 3.002.955-3.001h1.367l-1.576 4.36zM59.891 65.83h1.89v1.046h-3.138v-4.36h3.103v1.04H59.89v.605h1.68v1.027h-1.68zM62.375 62.517h1.248v4.36h-1.248zM66.747 66.97q-1.101 0-1.827-.648a2.1 2.1 0 0 1-.718-1.626q0-.97.718-1.619.726-.654 1.827-.654.663 0 1.228.28.564.28.885.754l-1.08.554a.94.94 0 0 0-.419-.36 1.34 1.34 0 0 0-.614-.138q-.585 0-.948.33-.356.324-.356.853 0 .53.356.86.363.324.948.324.342 0 .614-.131a.96.96 0 0 0 .418-.374l1.081.56q-.321.48-.885.76a2.75 2.75 0 0 1-1.228.275M72.591 66.552q-.537.417-1.387.417-.851 0-1.395-.417a1.33 1.33 0 0 1-.537-1.108v-2.927h1.248v2.82q0 .549.684.549.683 0 .683-.548v-2.821h1.248v2.927q0 .69-.544 1.108M75.104 65.799h1.681v1.077h-2.929v-4.36h1.248zM80.355 66.876l-.21-.629h-1.624l-.21.63h-1.353l1.611-4.36h1.52l1.611 4.36zm-1.514-1.588h.984l-.496-1.482zM84.6 66.876l-.85-1.407h-.447v1.407h-1.248v-4.36h1.953q.745 0 1.248.43.51.424.51 1.078 0 .392-.224.722a1.6 1.6 0 0 1-.607.517l1.004 1.613zm-1.296-3.332v.978h.69a.5.5 0 0 0 .377-.13.46.46 0 0 0 .146-.356.46.46 0 0 0-.146-.355.53.53 0 0 0-.377-.137z"/><rect width="16.271" height=".692" x="39.784" y="71.696" fill="#1A62B2" rx=".346"/></svg>