<svg width="308" height="60" viewBox="0 0 308 60" fill="none" xmlns="http://www.w3.org/2000/svg">
<path d="M75.141 25.456V43H72.069V25.456H75.141ZM81.5259 43H78.5979V31.144H81.3099L81.5499 32.68C82.2939 31.48 83.7339 30.784 85.3419 30.784C88.3179 30.784 89.8539 32.632 89.8539 35.704V43H86.9259V36.4C86.9259 34.408 85.9419 33.448 84.4299 33.448C82.6299 33.448 81.5259 34.696 81.5259 36.616V43ZM96.7628 43H93.8348V33.592H91.5548V31.144H93.8348V27.448H96.7628V31.144H99.0668V33.592H96.7628V43ZM106.074 43.312C102.546 43.312 100.074 40.744 100.074 37.072C100.074 33.352 102.498 30.784 105.978 30.784C109.53 30.784 111.786 33.16 111.786 36.856V37.744L102.858 37.768C103.074 39.856 104.178 40.912 106.122 40.912C107.73 40.912 108.786 40.288 109.122 39.16H111.834C111.33 41.752 109.17 43.312 106.074 43.312ZM106.002 33.184C104.274 33.184 103.218 34.12 102.93 35.896H108.882C108.882 34.264 107.754 33.184 106.002 33.184ZM117.081 43H114.177V25.144H117.081V43ZM123.105 43H120.201V25.144H123.105V43ZM127.64 28.768C126.632 28.768 125.84 27.976 125.84 26.992C125.84 26.008 126.632 25.24 127.64 25.24C128.6 25.24 129.392 26.008 129.392 26.992C129.392 27.976 128.6 28.768 127.64 28.768ZM126.176 43V31.144H129.104V43H126.176ZM131.457 36.808C131.457 33.352 133.713 30.76 137.097 30.76C138.873 30.76 140.265 31.504 140.961 32.776L141.129 31.144H143.841V42.4C143.841 46.36 141.465 48.832 137.625 48.832C134.217 48.832 131.889 46.888 131.529 43.72H134.457C134.649 45.256 135.825 46.168 137.625 46.168C139.641 46.168 140.937 44.896 140.937 42.928V40.96C140.193 42.064 138.729 42.76 137.025 42.76C133.665 42.76 131.457 40.24 131.457 36.808ZM134.409 36.736C134.409 38.728 135.681 40.216 137.601 40.216C139.617 40.216 140.865 38.8 140.865 36.736C140.865 34.72 139.641 33.328 137.601 33.328C135.657 33.328 134.409 34.792 134.409 36.736ZM152.175 43.312C148.647 43.312 146.175 40.744 146.175 37.072C146.175 33.352 148.599 30.784 152.079 30.784C155.631 30.784 157.887 33.16 157.887 36.856V37.744L148.959 37.768C149.175 39.856 150.279 40.912 152.223 40.912C153.831 40.912 154.887 40.288 155.223 39.16H157.935C157.431 41.752 155.271 43.312 152.175 43.312ZM152.103 33.184C150.375 33.184 149.319 34.12 149.031 35.896H154.983C154.983 34.264 153.855 33.184 152.103 33.184ZM163.159 43H160.231V31.144H162.943L163.183 32.68C163.927 31.48 165.367 30.784 166.975 30.784C169.951 30.784 171.487 32.632 171.487 35.704V43H168.559V36.4C168.559 34.408 167.575 33.448 166.063 33.448C164.263 33.448 163.159 34.696 163.159 36.616V43ZM173.668 37.048C173.668 33.376 176.092 30.784 179.596 30.784C182.836 30.784 185.044 32.584 185.356 35.44H182.428C182.092 34.096 181.108 33.4 179.716 33.4C177.844 33.4 176.596 34.816 176.596 37.048C176.596 39.28 177.748 40.672 179.62 40.672C181.084 40.672 182.116 39.952 182.428 38.656H185.38C185.02 41.416 182.716 43.312 179.62 43.312C176.02 43.312 173.668 40.816 173.668 37.048ZM192.863 43.312C189.335 43.312 186.863 40.744 186.863 37.072C186.863 33.352 189.287 30.784 192.767 30.784C196.319 30.784 198.575 33.16 198.575 36.856V37.744L189.647 37.768C189.863 39.856 190.967 40.912 192.911 40.912C194.519 40.912 195.575 40.288 195.911 39.16H198.623C198.119 41.752 195.959 43.312 192.863 43.312ZM192.791 33.184C191.063 33.184 190.007 34.12 189.719 35.896H195.671C195.671 34.264 194.543 33.184 192.791 33.184ZM206.811 30.352C206.811 27.28 209.355 25.144 213.051 25.144C216.603 25.144 218.859 27.112 218.955 30.28H215.883C215.811 28.768 214.731 27.88 213.003 27.88C211.107 27.88 209.883 28.792 209.883 30.256C209.883 31.504 210.555 32.2 212.019 32.536L214.779 33.136C217.779 33.784 219.243 35.32 219.243 37.936C219.243 41.2 216.699 43.312 212.835 43.312C209.091 43.312 206.643 41.32 206.571 38.176H209.643C209.667 39.664 210.867 40.552 212.835 40.552C214.875 40.552 216.171 39.664 216.171 38.2C216.171 37.024 215.571 36.328 214.131 36.016L211.347 35.392C208.371 34.744 206.811 33.04 206.811 30.352ZM220.894 37.048C220.894 33.376 223.318 30.784 226.822 30.784C230.062 30.784 232.27 32.584 232.582 35.44H229.654C229.318 34.096 228.334 33.4 226.942 33.4C225.07 33.4 223.822 34.816 223.822 37.048C223.822 39.28 224.974 40.672 226.846 40.672C228.31 40.672 229.342 39.952 229.654 38.656H232.606C232.246 41.416 229.942 43.312 226.846 43.312C223.246 43.312 220.894 40.816 220.894 37.048ZM242.225 31.096V33.808H241.145C239.033 33.808 237.713 34.936 237.713 37.24V43H234.785V31.168H237.545L237.713 32.896C238.217 31.72 239.345 30.928 240.929 30.928C241.337 30.928 241.745 30.976 242.225 31.096ZM247.267 43.312C244.747 43.312 243.211 41.848 243.211 39.616C243.211 37.432 244.795 36.064 247.603 35.848L251.155 35.584V35.32C251.155 33.712 250.195 33.064 248.707 33.064C246.979 33.064 246.019 33.784 246.019 35.032H243.523C243.523 32.464 245.635 30.784 248.851 30.784C252.043 30.784 254.011 32.512 254.011 35.8V43H251.443L251.227 41.248C250.723 42.472 249.115 43.312 247.267 43.312ZM248.227 41.104C250.027 41.104 251.179 40.024 251.179 38.2V37.576L248.707 37.768C246.883 37.936 246.187 38.536 246.187 39.496C246.187 40.576 246.907 41.104 248.227 41.104ZM256.887 48.496V31.144H259.599L259.791 32.944C260.511 31.576 262.071 30.784 263.871 30.784C267.207 30.784 269.415 33.208 269.415 36.928C269.415 40.624 267.399 43.312 263.871 43.312C262.095 43.312 260.559 42.616 259.815 41.416V48.496H256.887ZM259.839 37.072C259.839 39.208 261.159 40.672 263.175 40.672C265.239 40.672 266.463 39.184 266.463 37.072C266.463 34.96 265.239 33.448 263.175 33.448C261.159 33.448 259.839 34.936 259.839 37.072ZM271.746 48.496V31.144H274.458L274.65 32.944C275.37 31.576 276.93 30.784 278.73 30.784C282.066 30.784 284.274 33.208 284.274 36.928C284.274 40.624 282.258 43.312 278.73 43.312C276.954 43.312 275.418 42.616 274.674 41.416V48.496H271.746ZM274.698 37.072C274.698 39.208 276.018 40.672 278.034 40.672C280.098 40.672 281.322 39.184 281.322 37.072C281.322 34.96 280.098 33.448 278.034 33.448C276.018 33.448 274.698 34.936 274.698 37.072ZM291.91 43.312C288.382 43.312 285.91 40.744 285.91 37.072C285.91 33.352 288.334 30.784 291.814 30.784C295.366 30.784 297.622 33.16 297.622 36.856V37.744L288.694 37.768C288.91 39.856 290.014 40.912 291.958 40.912C293.566 40.912 294.622 40.288 294.958 39.16H297.67C297.166 41.752 295.006 43.312 291.91 43.312ZM291.838 33.184C290.11 33.184 289.054 34.12 288.766 35.896H294.718C294.718 34.264 293.59 33.184 291.838 33.184ZM307.405 31.096V33.808H306.325C304.213 33.808 302.893 34.936 302.893 37.24V43H299.965V31.168H302.725L302.893 32.896C303.397 31.72 304.525 30.928 306.109 30.928C306.517 30.928 306.925 30.976 307.405 31.096Z" fill="white"/>
<path d="M37.5 55V45C37.8478 41.8682 36.9498 38.7253 35 36.25C42.5 36.25 50 31.25 50 22.5C50.2 19.375 49.325 16.3 47.5 13.75C48.2 10.875 48.2 7.875 47.5 5C47.5 5 45 5 40 8.75C33.4 7.5 26.6 7.5 20 8.75C15 5 12.5 5 12.5 5C11.75 7.875 11.75 10.875 12.5 13.75C10.6797 16.2897 9.79615 19.382 9.99997 22.5C9.99997 31.25 17.5 36.25 25 36.25C24.025 37.475 23.3 38.875 22.875 40.375C22.45 41.875 22.325 43.45 22.5 45V55" stroke="#6C6EF9" stroke-width="4" stroke-linecap="round" stroke-linejoin="round"/>
<path d="M22.5 45C11.225 50 10 40 5 40" stroke="#6C6EF9" stroke-width="4" stroke-linecap="round" stroke-linejoin="round"/>
</svg>
