<svg width="265" height="70" viewBox="0 0 265 70" fill="none" xmlns="http://www.w3.org/2000/svg">
<path d="M254.375 55.5272C252.087 55.5272 250.05 55.1547 248.263 54.4097C246.477 53.6647 245.066 52.6515 244.032 51.37C242.998 50.0588 242.418 48.5986 242.292 46.9893H250.238C250.332 47.8535 250.755 48.5539 251.507 49.0903C252.259 49.6267 253.184 49.8949 254.281 49.8949C255.284 49.8949 256.052 49.7161 256.585 49.3585C257.149 48.9711 257.431 48.4794 257.431 47.8834C257.431 47.1681 257.039 46.6466 256.255 46.3188C255.472 45.9612 254.202 45.5738 252.447 45.1566C250.567 44.7394 249 44.3073 247.746 43.8602C246.492 43.3834 245.411 42.6533 244.502 41.6699C243.593 40.6567 243.139 39.3007 243.139 37.6021C243.139 36.1716 243.546 34.8753 244.361 33.7131C245.207 32.5211 246.43 31.5823 248.028 30.8969C249.658 30.2115 251.585 29.8688 253.811 29.8688C257.102 29.8688 259.687 30.6436 261.568 32.1932C263.48 33.7429 264.577 35.7991 264.859 38.362H257.431C257.305 37.4978 256.898 36.8124 256.208 36.3057C255.55 35.7991 254.673 35.5458 253.576 35.5458C252.635 35.5458 251.914 35.7246 251.413 36.0822C250.911 36.41 250.661 36.872 250.661 37.468C250.661 38.1832 251.053 38.7196 251.836 39.0772C252.651 39.4348 253.905 39.7924 255.597 40.15C257.54 40.6269 259.123 41.1037 260.346 41.5805C261.568 42.0275 262.634 42.7725 263.543 43.8155C264.483 44.8288 264.969 46.1996 265 47.928C265 49.3883 264.561 50.6995 263.684 51.8617C262.837 52.9942 261.599 53.8882 259.97 54.5438C258.371 55.1994 256.506 55.5272 254.375 55.5272Z" fill="#FFF6F6"/>
<path d="M212.174 42.6533C212.174 40.0904 212.676 37.8405 213.678 35.9034C214.713 33.9664 216.108 32.4764 217.863 31.4333C219.618 30.3903 221.577 29.8688 223.739 29.8688C225.589 29.8688 227.203 30.2264 228.582 30.9416C229.992 31.6568 231.074 32.5956 231.826 33.7578V30.2264H239.865V55.1696H231.826V51.6382C231.042 52.8005 229.945 53.7392 228.535 54.4544C227.156 55.1696 225.542 55.5272 223.692 55.5272C221.561 55.5272 219.618 55.0057 217.863 53.9627C216.108 52.8899 214.713 51.3849 213.678 49.4479C212.676 47.481 212.174 45.2162 212.174 42.6533ZM231.826 42.698C231.826 40.7908 231.262 39.2858 230.133 38.1832C229.036 37.0806 227.689 36.5293 226.09 36.5293C224.492 36.5293 223.128 37.0806 222 38.1832C220.903 39.256 220.354 40.7461 220.354 42.6533C220.354 44.5606 220.903 46.0804 222 47.2128C223.128 48.3155 224.492 48.8668 226.09 48.8668C227.689 48.8668 229.036 48.3155 230.133 47.2128C231.262 46.1102 231.826 44.6053 231.826 42.698Z" fill="#FFF6F6"/>
<path d="M198.916 30.0532C201.925 30.0532 204.338 31.0068 206.156 32.9141C207.974 34.7915 208.883 37.3842 208.883 40.6921V55.2646H200.891V41.7202C200.891 40.0513 200.436 38.755 199.527 37.8312C198.618 36.9074 197.396 36.4454 195.86 36.4454C194.324 36.4454 193.102 36.9074 192.193 37.8312C191.284 38.755 190.83 40.0513 190.83 41.7202V55.2646H182.79V22.1858H190.83V33.674C191.645 32.5713 192.757 31.6922 194.168 31.0366C195.578 30.381 197.161 30.0532 198.916 30.0532Z" fill="#FFF6F6"/>
<path d="M179.811 22.1858V55.2646H171.771V22.1858H179.811Z" fill="#FFF6F6"/>
<path d="M140.919 42.6533C140.919 40.0904 141.42 37.8405 142.423 35.9034C143.457 33.9664 144.852 32.4764 146.607 31.4333C148.362 30.3903 150.321 29.8688 152.484 29.8688C154.333 29.8688 155.947 30.2264 157.326 30.9416C158.737 31.6568 159.818 32.5956 160.57 33.7578V30.2264H168.61V55.1696H160.57V51.6382C159.787 52.8005 158.69 53.7392 157.279 54.4544C155.9 55.1696 154.286 55.5272 152.437 55.5272C150.306 55.5272 148.362 55.0057 146.607 53.9627C144.852 52.8899 143.457 51.3849 142.423 49.4479C141.42 47.481 140.919 45.2162 140.919 42.6533ZM160.57 42.698C160.57 40.7908 160.006 39.2858 158.878 38.1832C157.781 37.0806 156.433 36.5293 154.835 36.5293C153.236 36.5293 151.873 37.0806 150.744 38.1832C149.647 39.256 149.099 40.7461 149.099 42.6533C149.099 44.5606 149.647 46.0804 150.744 47.2128C151.873 48.3155 153.236 48.8668 154.835 48.8668C156.433 48.8668 157.781 48.3155 158.878 47.2128C160.006 46.1102 160.57 44.6053 160.57 42.698Z" fill="#FFF6F6"/>
<path d="M127.379 29.8688C130.638 29.8688 133.224 30.8075 135.136 32.685C137.079 34.5624 138.051 37.17 138.051 40.5077V55.0802H130.058V41.5358C130.058 39.9265 129.604 38.6898 128.695 37.8256C127.817 36.9316 126.595 36.4846 125.028 36.4846C123.461 36.4846 122.223 36.9316 121.314 37.8256C120.436 38.6898 119.997 39.9265 119.997 41.5358V55.0802H112.005V41.5358C112.005 39.9265 111.551 38.6898 110.642 37.8256C109.764 36.9316 108.542 36.4846 106.975 36.4846C105.407 36.4846 104.169 36.9316 103.26 37.8256C102.383 38.6898 101.944 39.9265 101.944 41.5358V55.0802H93.9047V30.137H101.944V33.2661C102.759 32.223 103.825 31.4035 105.141 30.8075C106.457 30.1817 107.946 29.8688 109.607 29.8688C111.582 29.8688 113.337 30.2711 114.873 31.0757C116.44 31.8803 117.662 33.0277 118.54 34.5177C119.449 33.1469 120.687 32.0293 122.254 31.1651C123.821 30.3009 125.529 29.8688 127.379 29.8688Z" fill="#FFF6F6"/>
<path d="M90.7162 27.4773C89.3057 27.4773 88.1461 27.0899 87.2371 26.315C86.3595 25.5104 85.9207 24.527 85.9207 23.3648C85.9207 22.1727 86.3595 21.1893 87.2371 20.4145C88.1461 19.6099 89.3057 19.2076 90.7162 19.2076C92.0952 19.2076 93.2236 19.6099 94.1012 20.4145C95.0101 21.1893 95.4646 22.1727 95.4646 23.3648C95.4646 24.527 95.0101 25.5104 94.1012 26.315C93.2236 27.0899 92.0952 27.4773 90.7162 27.4773ZM94.7123 30.0699V55.0132H86.673V30.0699H94.7123Z" fill="url(#paint0_linear_160_321)"/>
<path d="M56.6091 42.5416C56.6091 39.9489 57.1575 37.684 58.2545 35.747C59.3829 33.8099 60.9343 32.3199 62.9089 31.2769C64.9148 30.2338 67.2029 29.7123 69.7729 29.7123C73.0639 29.7123 75.8064 30.5319 78.0004 32.1709C80.2257 33.8099 81.6831 36.1195 82.3727 39.0996H73.8161C73.0953 37.1923 71.7005 36.2387 69.6319 36.2387C68.1588 36.2387 66.9835 36.79 66.1059 37.8926C65.2283 38.9655 64.7895 40.5151 64.7895 42.5416C64.7895 44.568 65.2283 46.1325 66.1059 47.2352C66.9835 48.308 68.1588 48.8444 69.6319 48.8444C71.7005 48.8444 73.0953 47.8908 73.8161 45.9836H82.3727C81.6831 48.904 80.2257 51.1987 78.0004 52.8675C75.775 54.5364 73.0326 55.3708 69.7729 55.3708C67.2029 55.3708 64.9148 54.8493 62.9089 53.8062C60.9343 52.7632 59.3829 51.2732 58.2545 49.3361C57.1575 47.3991 56.6091 45.1342 56.6091 42.5416Z" fill="url(#paint1_linear_160_321)"/>
<path d="M53.9664 42.1392C53.9664 42.8545 53.9193 43.5995 53.8253 44.3743H35.631C35.7563 45.9239 36.2735 47.116 37.1824 47.9504C38.1227 48.755 39.2667 49.1573 40.6144 49.1573C42.6203 49.1573 44.0151 48.3527 44.7987 46.7435H53.3552C52.9164 48.3825 52.1171 49.8576 50.9575 51.1689C49.8291 52.4801 48.4031 53.5082 46.6792 54.2533C44.9554 54.9983 43.0278 55.3708 40.8965 55.3708C38.3264 55.3708 36.0384 54.8493 34.0325 53.8062C32.0266 52.7632 30.4594 51.2732 29.3311 49.3361C28.2028 47.3991 27.6386 45.1342 27.6386 42.5416C27.6386 39.9489 28.1871 37.684 29.2841 35.747C30.4124 33.8099 31.9795 32.3199 33.9855 31.2769C35.9914 30.2338 38.2951 29.7123 40.8965 29.7123C43.4353 29.7123 45.6919 30.2189 47.6665 31.2322C49.6411 32.2454 51.1769 33.6907 52.2739 35.5682C53.4022 37.4456 53.9664 39.636 53.9664 42.1392ZM45.7389 40.1277C45.7389 38.8165 45.2688 37.7734 44.3285 36.9986C43.3882 36.2238 42.2129 35.8364 40.8025 35.8364C39.4548 35.8364 38.3107 36.2089 37.3705 36.9539C36.4615 37.6989 35.8974 38.7569 35.678 40.1277H45.7389Z" fill="url(#paint2_linear_160_321)"/>
<path d="M23.269 69.1471H29.6341H20.5561C14.0866 69.1471 9.04327 67.6525 5.42596 64.6635C1.80865 61.608 0 56.6594 0 49.8178V27.6987V13.5504V0H8.69824H17.8431V13.5504H29.5298V27.6987H17.8431V50.017C17.8431 51.6776 18.2605 52.8733 19.0952 53.6039C19.93 54.3346 21.3213 54.6999 23.269 54.6999V69.1471Z" fill="url(#paint3_linear_160_321)"/>
<defs>
<linearGradient id="paint0_linear_160_321" x1="132.5" y1="0" x2="132.5" y2="69.1471" gradientUnits="userSpaceOnUse">
<stop stop-color="#30E958"/>
<stop offset="1" stop-color="#3ABF57"/>
</linearGradient>
<linearGradient id="paint1_linear_160_321" x1="132.5" y1="0" x2="132.5" y2="69.1471" gradientUnits="userSpaceOnUse">
<stop stop-color="#30E958"/>
<stop offset="1" stop-color="#3ABF57"/>
</linearGradient>
<linearGradient id="paint2_linear_160_321" x1="132.5" y1="0" x2="132.5" y2="69.1471" gradientUnits="userSpaceOnUse">
<stop stop-color="#30E958"/>
<stop offset="1" stop-color="#3ABF57"/>
</linearGradient>
<linearGradient id="paint3_linear_160_321" x1="132.5" y1="0" x2="132.5" y2="69.1471" gradientUnits="userSpaceOnUse">
<stop stop-color="#30E958"/>
<stop offset="1" stop-color="#3ABF57"/>
</linearGradient>
</defs>
</svg>
