<svg width="60" height="54" viewBox="0 0 60 54" fill="none" xmlns="http://www.w3.org/2000/svg">
<g opacity="0.4">
<path opacity="0.5" d="M8.06253 38.8636H21.1538C22.3196 38.8636 23.8777 38.1786 22.9772 37.4382L22.9577 37.4223C14.5806 31.7866 13.6039 23.4484 22.9577 16.5743C23.5073 15.9115 22.4435 15.3388 21.5825 15.3388H17.3294C22.8313 10.6414 28.0194 9.98894 39.1604 10.603L47.1765 0.153262C23.8586 -0.566467 12.2035 0.726102 1.92255 15.5962H8.00568C3.15899 23.928 3.51891 29.0762 8.06253 38.8636Z" fill="#2E2E2E"/>
<path opacity="0.5" d="M48.1252 15.0177H35.0339C33.8681 15.0177 32.3101 15.7028 33.2106 16.4431L33.2301 16.4591C41.6072 22.0948 42.5838 30.4329 33.2301 37.3071C32.6805 37.9699 33.7442 38.5425 34.6052 38.5425H38.8584C33.3564 43.24 28.1683 43.8924 17.0273 43.2784L9.01123 53.7281C32.3291 54.4478 43.9842 53.1553 54.2652 38.2851H48.1821C53.0288 29.9533 52.6688 24.8052 48.1252 15.0177Z" fill="#2E2E2E"/>
</g>
<path d="M13.2391 38.8636H25.8148C26.9799 38.8636 28.5121 38.1725 27.6206 37.4223C19.5323 31.7866 18.5894 23.4484 27.6206 16.5743C28.154 15.908 27.1078 15.3388 26.2542 15.3388H22.1864C27.4986 10.6414 32.5078 9.98894 43.2646 10.603L51.0043 0.153262C28.4905 -0.566467 17.2372 0.726102 7.31081 15.5962H13.1842C8.50461 23.928 8.85212 29.0762 13.2391 38.8636Z" fill="#2E2E2E"/>
<path d="M51.9299 15.1364H39.3542C38.189 15.1364 36.6569 15.8275 37.5484 16.5777C45.6366 22.2134 46.5796 30.5516 37.5484 37.4257C37.0149 38.092 38.0612 38.6612 38.9147 38.6612H42.9826C37.6704 43.3586 32.6612 44.0111 21.9043 43.397L14.1647 53.8467C36.6785 54.5665 47.9317 53.2739 57.8582 38.4038H51.9848C56.6643 30.072 56.3168 24.9238 51.9299 15.1364Z" fill="#2E2E2E"/>
</svg>
