<svg width="60" height="55" viewBox="0 0 60 55" fill="none" xmlns="http://www.w3.org/2000/svg">
<g opacity="0.4">
<path d="M6.78815 38.9754L19.8794 38.9279C21.0451 38.9237 22.6006 38.2331 21.6973 37.4959L21.6777 37.4801C13.2791 31.8748 12.2707 23.5402 21.5982 16.6322C22.1452 15.9674 21.0793 15.3986 20.2183 15.4018L15.9652 15.4172C21.4492 10.6998 26.6348 10.0286 37.7781 10.6023L45.7542 0.123534C22.4338 -0.511692 10.7837 0.823104 0.559475 15.7304L6.64257 15.7083C1.82768 24.0577 2.20723 29.2044 6.78815 38.9754Z" fill="#595959"/>
<path d="M49.3492 15.8923H36.2224C35.0623 15.8923 33.507 16.5727 34.4047 17.3074L34.428 17.3264C42.8198 22.9337 43.7981 31.2298 34.428 38.0693C33.878 38.728 34.9398 39.2985 35.798 39.2985H40.0662C34.5546 43.9723 29.3573 44.6214 18.1968 44.0105L10.1667 54.4075C33.5255 55.1236 45.201 53.8376 55.5 39.0424H49.4062C54.2614 30.7526 53.9008 25.6304 49.3492 15.8923Z" fill="#595959"/>
</g>
<path d="M13.2391 39.4838H25.8148C26.9799 39.4838 28.512 38.7927 27.6206 38.0424C19.5323 32.4067 18.5894 24.0686 27.6206 17.1944C28.154 16.5281 27.1077 15.959 26.2542 15.959H22.1863C27.4986 11.2615 32.5078 10.6091 43.2646 11.2232L51.0043 0.77341C28.4904 0.0536809 17.2372 1.34625 7.31079 16.2164H13.1842C8.5046 24.5482 8.85211 29.6963 13.2391 39.4838Z" fill="#DEDEDE"/>
<path d="M51.93 15.7565H39.3543C38.1891 15.7565 36.657 16.4476 37.5485 17.1979C45.6368 22.8336 46.5797 31.1717 37.5485 38.0459C37.0151 38.7122 38.0613 39.2813 38.9148 39.2813H42.9827C37.6705 43.9788 32.6613 44.6312 21.9045 44.0171L14.1648 54.4669C36.6786 55.1866 47.9318 53.894 57.8583 39.0239H51.9849C56.6645 30.6921 56.317 25.544 51.93 15.7565Z" fill="#DEDEDE"/>
</svg>
