<svg width="30" height="30" viewBox="0 0 30 30" fill="none" xmlns="http://www.w3.org/2000/svg">
<path d="M26.431 15.7883C26.3139 17.9585 25.5706 20.0483 24.2911 21.8051C23.0116 23.5618 21.2506 24.9104 19.2211 25.6877C17.1915 26.465 14.9802 26.6378 12.8545 26.1852C10.7288 25.7326 8.77973 24.674 7.24286 23.1372C5.70599 21.6005 4.64714 19.6516 4.1943 17.5259C3.74147 15.4003 3.91403 13.189 4.69113 11.1593C5.46823 9.12965 6.81661 7.36853 8.57325 6.08884C10.3299 4.80915 12.4196 4.06568 14.5898 3.9483C15.096 3.9208 15.361 4.5233 15.0923 4.95205C14.1934 6.39024 13.8085 8.09063 14.0004 9.77574C14.1923 11.4608 14.9497 13.0311 16.1489 14.2304C17.3482 15.4296 18.9185 16.187 20.6036 16.3789C22.2887 16.5708 23.9891 16.1859 25.4273 15.287C25.8573 15.0183 26.4585 15.282 26.431 15.7883Z" stroke="#B2B2B2" stroke-width="4" stroke-linecap="round" stroke-linejoin="round"/>
</svg>
