<svg width="15" height="24" viewBox="0 0 15 24" fill="none" xmlns="http://www.w3.org/2000/svg">
<path d="M6.36395 23C6.36395 23.5523 6.81167 24 7.36395 24C7.91624 24 8.36395 23.5523 8.36395 23H7.36395H6.36395ZM8.07106 0.292892C7.68054 -0.0976315 7.04737 -0.0976315 6.65685 0.292892L0.292885 6.65685C-0.0976396 7.04738 -0.0976396 7.68054 0.292885 8.07107C0.683409 8.46159 1.31657 8.46159 1.7071 8.07107L7.36395 2.41421L13.0208 8.07107C13.4113 8.46159 14.0445 8.46159 14.435 8.07107C14.8255 7.68054 14.8255 7.04738 14.435 6.65685L8.07106 0.292892ZM7.36395 23H8.36395L8.36395 1H7.36395H6.36395L6.36395 23H7.36395Z" fill="#9C9C9C"/>
</svg>
