<svg width="70" height="70" viewBox="0 0 70 70" fill="none" xmlns="http://www.w3.org/2000/svg">
<path d="M23.3337 70C29.7737 70 35.0003 64.7733 35.0003 58.3333V46.6666H23.3337C16.8937 46.6666 11.667 51.8933 11.667 58.3333C11.667 64.7733 16.8937 70 23.3337 70Z" fill="#404040"/>
<path d="M11.667 35C11.667 28.56 16.8937 23.3334 23.3337 23.3334H35.0003V46.6667H23.3337C16.8937 46.6667 11.667 41.44 11.667 35Z" fill="#2E2E2E"/>
<path d="M11.667 11.6667C11.667 5.22667 16.8937 0 23.3337 0H35.0003V23.3333H23.3337C16.8937 23.3333 11.667 18.1067 11.667 11.6667Z" fill="#121212"/>
<path d="M35 0H46.6667C53.1067 0 58.3333 5.22667 58.3333 11.6667C58.3333 18.1067 53.1067 23.3333 46.6667 23.3333H35V0Z" fill="#595959"/>
<path d="M58.3333 35C58.3333 41.44 53.1067 46.6667 46.6667 46.6667C40.2267 46.6667 35 41.44 35 35C35 28.56 40.2267 23.3334 46.6667 23.3334C53.1067 23.3334 58.3333 28.56 58.3333 35Z" fill="#717171"/>
</svg>
