<svg width="70" height="70" viewBox="0 0 70 70" fill="none" xmlns="http://www.w3.org/2000/svg">
<g clip-path="url(#clip0_131_73)">
<path d="M68.2184 31.9255L38.0763 1.78499C36.3417 0.049209 33.5263 0.049209 31.7889 1.78499L25.531 8.04452L33.4706 15.9841C35.3163 15.3612 37.4316 15.779 38.9021 17.2495C40.3803 18.7294 40.7954 20.8627 40.1561 22.7144L47.808 30.3674C49.6592 29.7292 51.7958 30.1416 53.2735 31.6225C55.3406 33.688 55.3406 37.0366 53.2735 39.1032C51.2063 41.1704 47.8588 41.1704 45.7906 39.1032C44.2363 37.5479 43.8519 35.2647 44.6394 33.3495L37.5038 26.2134L37.5027 44.9936C38.0069 45.2424 38.4821 45.5749 38.9021 45.9933C40.9688 48.0588 40.9688 51.4062 38.9021 53.4762C36.8355 55.5417 33.4859 55.5417 31.4214 53.4762C29.3553 51.4068 29.1858 48.0594 31.2513 45.9933C31.7621 45.483 32.2658 45.0975 32.8127 44.8394V25.8852C32.2658 25.6271 31.7627 25.2443 31.2508 24.7308C29.6862 23.1667 29.3936 20.8698 30.1964 18.947L22.4127 11.1196L1.76603 31.786C0.0297004 33.5234 0.0406379 36.3387 1.77697 38.0751L31.924 68.2155C33.6592 69.9513 36.4767 69.9513 38.2147 68.2155L68.2163 38.2151C69.9526 36.4782 69.9542 33.6612 68.2184 31.9255Z" fill="#2E2E2E"/>
</g>
<defs>
<clipPath id="clip0_131_73">
<rect width="70" height="70" fill="white"/>
</clipPath>
</defs>
</svg>
