<svg width="70" height="70" viewBox="0 0 70 70" fill="none" xmlns="http://www.w3.org/2000/svg">
<path d="M9.70703 62.8906L4.10156 0H65.7617L60.1562 62.8906L34.8633 70" fill="#2E2E2E"/>
<path d="M35 64.5312L55.3711 58.9258L60.1562 5.05859H35" fill="#595959"/>
<path d="M35 28.4375H24.7461L24.0625 20.5078H35V12.8516H15.5859L17.6367 36.2305H35V28.4375ZM34.8633 48.5352L26.25 46.2109L25.7031 40.0586H18.0469L19.0039 52.2266L34.8633 56.6016V48.5352Z" fill="#EBEBEB"/>
<path d="M34.8633 28.4375V36.2305H44.4336L43.4766 46.2109L34.8633 48.5352V56.6016L50.7227 52.2266L52.9102 28.4375H34.8633ZM34.8633 12.8516V20.5078H53.5938L54.2773 12.8516H34.8633Z" fill="white"/>
</svg>
