<svg width="70" height="70" viewBox="0 0 70 70" fill="none" xmlns="http://www.w3.org/2000/svg">
<path d="M26.0403 53.6593C26.0403 53.6593 23.4334 55.1764 27.8981 55.6882C33.3078 56.3062 36.0722 56.2176 42.0321 55.091C42.0321 55.091 43.6021 56.0727 45.7907 56.9236C32.4257 62.6494 15.5442 56.5917 26.0403 53.6593ZM24.4063 46.1863C24.4063 46.1863 21.4816 48.3514 25.9501 48.814C31.7289 49.4107 36.2915 49.4593 44.1906 47.939C44.1906 47.939 45.2805 49.0464 46.9971 49.6513C30.8414 54.3763 12.847 50.0232 24.4063 46.1863Z" fill="#2E2E2E"/>
<path d="M38.1728 33.5075C41.4677 37.3001 37.3087 40.7099 37.3087 40.7099C37.3087 40.7099 45.6699 36.3945 41.8308 30.9881C38.2439 25.9486 35.4942 23.4456 50.3812 14.8115C50.3812 14.8121 27.0127 20.6467 38.1728 33.5075Z" fill="#B2B2B2"/>
<path d="M55.8487 59.1877C55.8487 59.1877 57.7786 60.7791 53.7224 62.009C46.0104 64.3453 21.6176 65.0496 14.8429 62.1025C12.4088 61.0427 16.9752 59.5732 18.4118 59.2632C19.9097 58.9389 20.765 58.9979 20.765 58.9979C18.0563 57.091 3.25791 62.744 13.2493 64.3655C40.4952 68.7821 62.9149 62.3765 55.8487 59.1877ZM27.2958 38.442C27.2958 38.442 14.8894 41.3891 22.9028 42.4604C26.2868 42.9132 33.0298 42.8093 39.315 42.2821C44.4502 41.8507 49.6034 40.9292 49.6034 40.9292C49.6034 40.9292 47.7943 41.7052 46.484 42.5988C33.8829 45.9134 9.54588 44.3696 16.553 40.9811C22.4767 38.1161 27.2958 38.442 27.2958 38.442ZM49.552 50.8818C62.3603 44.2279 56.4377 37.8333 52.3039 38.6946C51.2932 38.9052 50.8399 39.0884 50.8399 39.0884C50.8399 39.0884 51.2161 38.4983 51.9336 38.2446C60.111 35.3707 66.399 46.7228 49.296 51.2192C49.296 51.2181 49.4924 51.0404 49.552 50.8818Z" fill="#2E2E2E"/>
<path d="M41.8311 0.86792C41.8311 0.86792 48.923 7.96417 35.1029 18.8727C24.0199 27.626 32.5758 32.6157 35.0991 38.319C28.629 32.4822 23.8832 27.3432 27.0666 22.5608C31.7412 15.5422 44.6918 12.1379 41.8311 0.86792Z" fill="#B2B2B2"/>
<path d="M28.5545 68.9178C40.8461 69.7036 59.7264 68.4803 60.1732 62.6637C60.1732 62.6637 59.314 64.8687 50.0139 66.6182C39.5215 68.5935 26.5781 68.3632 18.9038 67.0961C18.9038 67.0967 20.4761 68.3982 28.5545 68.9178Z" fill="#2E2E2E"/>
</svg>
