<svg width="70" height="70" viewBox="0 0 70 70" fill="none" xmlns="http://www.w3.org/2000/svg">
<path d="M62.5216 44.1597C62.363 44.1597 62.2055 44.1181 62.0666 44.0372L60.6174 43.1797C60.4008 43.0588 60.5064 43.0156 60.578 42.991C60.8668 42.8904 60.9253 42.8668 61.2332 42.6929C61.2654 42.6749 61.3075 42.6815 61.3409 42.7011L62.4538 43.3623C62.4943 43.3847 62.5517 43.3847 62.5883 43.3623L66.9289 40.8571C66.9699 40.8341 66.9956 40.7876 66.9956 40.7395V35.7301C66.9956 35.6809 66.9699 35.6355 66.9283 35.6104L62.5894 33.1073C62.5489 33.0844 62.4959 33.0844 62.4554 33.1073L58.1171 35.6109C58.0755 35.6355 58.0487 35.6826 58.0487 35.7301V40.7395C58.0487 40.7876 58.0755 40.833 58.1171 40.8554L59.306 41.5429C59.9513 41.865 60.3467 41.4854 60.3467 41.1037V36.1572C60.3467 36.0878 60.403 36.0326 60.4725 36.0326H61.0232C61.0915 36.0326 61.1484 36.0878 61.1484 36.1572V41.1037C61.1484 41.9645 60.6797 42.4583 59.8632 42.4583C59.6122 42.4583 59.4148 42.4583 58.8636 42.1871L57.7255 41.5319C57.4439 41.369 57.2705 41.0649 57.2705 40.7401V35.7307C57.2705 35.4053 57.4439 35.1018 57.7255 34.9399L62.0661 32.4314C62.3406 32.2766 62.7053 32.2766 62.9777 32.4314L67.3182 34.9399C67.5993 35.1023 67.7738 35.4058 67.7738 35.7307V40.7401C67.7738 41.0654 67.5993 41.3679 67.3182 41.5319L62.9777 44.0377C62.8399 44.1181 62.6829 44.1597 62.5216 44.1597ZM63.8631 40.7083C61.9627 40.7083 61.5651 39.8361 61.5651 39.1049C61.5651 39.036 61.6214 38.9797 61.6909 38.9797H62.252C62.3149 38.9797 62.3668 39.0245 62.3767 39.0858C62.4609 39.6572 62.7141 39.9454 63.8631 39.9454C64.7769 39.9454 65.1663 39.7387 65.1663 39.2531C65.1663 38.9731 65.0558 38.7658 63.635 38.6264C62.4472 38.5088 61.7128 38.2468 61.7128 37.2958C61.7128 36.4203 62.4511 35.8975 63.6881 35.8975C65.0788 35.8975 65.7668 36.3804 65.8537 37.4161C65.857 37.4511 65.8444 37.4856 65.8209 37.5124C65.7968 37.537 65.764 37.5523 65.729 37.5523H65.1652C65.1067 37.5523 65.0553 37.5113 65.0432 37.4544C64.9076 36.8529 64.5795 36.6609 63.6875 36.6609C62.6895 36.6609 62.5736 37.0093 62.5736 37.269C62.5736 37.5846 62.7103 37.6765 64.0583 37.8547C65.3921 38.0314 66.026 38.2808 66.026 39.2186C66.0265 40.1664 65.2379 40.7083 63.8631 40.7083Z" fill="#9C9C9C"/>
<path d="M53.5839 37.4227C53.7551 37.3226 53.8606 37.14 53.8606 36.9415V35.6541C53.8606 35.4561 53.7556 35.2735 53.5839 35.1734L49.0098 32.5178C48.8376 32.4177 48.6254 32.4172 48.4526 32.5167L43.8501 35.174C43.6784 35.2735 43.5723 35.4567 43.5723 35.6552V40.9686C43.5723 41.1683 43.6795 41.3531 43.8534 41.4521L48.4269 44.0579C48.5953 44.1547 48.802 44.1553 48.9721 44.0612L51.7382 42.5234C51.8262 42.4742 51.8809 42.3823 51.8815 42.2828C51.882 42.1822 51.8284 42.0892 51.7415 42.0394L47.1105 39.3816C47.0236 39.3318 46.9705 39.24 46.9705 39.141V37.4752C46.9705 37.3757 47.0236 37.2843 47.1094 37.2351L48.5516 36.4039C48.6369 36.3541 48.743 36.3541 48.8288 36.4039L50.2709 37.2351C50.3573 37.2849 50.4104 37.3762 50.4104 37.4752V38.7855C50.4104 38.8856 50.4634 38.9775 50.5493 39.0267C50.6357 39.0765 50.7418 39.0765 50.8282 39.0261L53.5839 37.4227Z" fill="#2E2E2E"/>
<path d="M48.6633 37.1732C48.6967 37.1547 48.7371 37.1547 48.7699 37.1732L49.6531 37.6835C49.686 37.7026 49.7062 37.7382 49.7062 37.7759V38.7958C49.7062 38.8341 49.686 38.8691 49.6531 38.8882L48.7699 39.3979C48.7371 39.4171 48.6961 39.4171 48.6633 39.3979L47.7806 38.8882C47.7473 38.8691 47.7271 38.8341 47.7271 38.7958V37.7759C47.7271 37.7382 47.7473 37.7026 47.7806 37.6835L48.6633 37.1732Z" fill="#9C9C9C"/>
<path d="M36.686 39.2951C36.686 39.3443 36.6598 39.3903 36.6166 39.4154L35.0361 40.3265C34.9929 40.3517 34.9398 40.3517 34.8972 40.3265L33.3167 39.4154C33.2735 39.3903 33.2473 39.3443 33.2473 39.2951V37.4696C33.2473 37.4204 33.2741 37.3739 33.3167 37.3488L34.8972 36.4366C34.9404 36.4109 34.9934 36.4109 35.0366 36.4366L36.6177 37.3488C36.6603 37.3739 36.6866 37.4204 36.6866 37.4696L36.686 39.2951ZM37.1131 25.7785C37.0273 25.731 36.9223 25.732 36.837 25.7818C36.7522 25.8321 36.6997 25.9229 36.6997 26.0213V33.0842C36.6997 33.1531 36.6625 33.2177 36.6029 33.2527C36.5427 33.2871 36.4684 33.2871 36.4082 33.2527L35.2554 32.5882C35.0837 32.4892 34.872 32.4892 34.7003 32.5882L30.0967 35.2449C29.9245 35.3445 29.8184 35.5282 29.8184 35.7267V41.0418C29.8184 41.2403 29.9245 41.4235 30.0962 41.5236L34.6998 44.182C34.8715 44.2815 35.0837 44.2815 35.2559 44.182L39.8606 41.5236C40.0323 41.4235 40.1384 41.2403 40.1384 41.0418V27.7927C40.1384 27.5914 40.0291 27.4055 39.8535 27.307L37.1131 25.7785Z" fill="#2E2E2E"/>
<path d="M20.9115 32.4882C21.0832 32.3887 21.2954 32.3887 21.4671 32.4882L26.0707 35.1444C26.2424 35.2439 26.3485 35.4277 26.3485 35.6262V40.9429C26.3485 41.1414 26.2424 41.3252 26.0707 41.4247L21.4677 44.0831C21.296 44.1821 21.0838 44.1821 20.9115 44.0831L16.3096 41.4247C16.1378 41.3252 16.0317 41.1414 16.0317 40.9429V35.6256C16.0317 35.4277 16.1378 35.2439 16.3096 35.1444L20.9115 32.4882Z" fill="#9C9C9C"/>
<path d="M12.5398 35.5818C12.5398 35.3817 12.4348 35.1979 12.262 35.0989L7.66006 32.4504C7.58131 32.4045 7.49436 32.381 7.40631 32.3777H7.35873C7.27123 32.381 7.18373 32.4045 7.10498 32.4504L2.50248 35.0989C2.33131 35.1979 2.22412 35.3817 2.22412 35.5818L2.23396 42.7131C2.23396 42.8126 2.28592 42.905 2.37287 42.9532C2.45818 43.0046 2.56373 43.0046 2.64904 42.9532L5.38342 41.3869C5.55623 41.2841 5.66178 41.1031 5.66178 40.9046V37.573C5.66178 37.3739 5.76678 37.1907 5.93904 37.0912L7.10389 36.4207C7.19029 36.3699 7.28545 36.3458 7.3817 36.3458C7.47686 36.3458 7.5742 36.3699 7.65896 36.4207L8.82271 37.0912C8.99498 37.1907 9.10107 37.3739 9.10107 37.573V40.9046C9.10107 41.1031 9.20771 41.2852 9.37943 41.3869L12.1138 42.9532C12.1997 43.0046 12.3069 43.0046 12.3916 42.9532C12.4764 42.9045 12.5294 42.8121 12.5294 42.7131L12.5398 35.5818Z" fill="#2E2E2E"/>
</svg>
