<svg width="70" height="70" viewBox="0 0 70 70" fill="none" xmlns="http://www.w3.org/2000/svg">
<path d="M65.0523 42.6114C56.9202 44.2379 56.3611 41.5684 56.3611 41.5684C64.947 29.2154 68.5364 13.5351 65.4392 9.69746C56.9889 -0.771004 42.3613 4.17994 42.1171 4.30826L42.0387 4.32205C40.432 3.99859 38.6341 3.80611 36.6131 3.77403C32.9337 3.71571 30.1425 4.70939 28.0244 6.26674C28.0244 6.26674 1.93031 -4.15638 3.1441 19.3756C3.40222 24.3817 10.5444 57.2548 19.0631 47.3256C22.1767 43.6947 25.1853 40.6248 25.1853 40.6248C26.6794 41.5872 28.4682 42.0782 30.3435 41.9019L30.4892 41.7821C30.4438 42.2328 30.4646 42.6737 30.5475 43.1957C28.3528 45.5731 28.9979 45.9904 24.6109 46.8661C20.1716 47.7532 22.7794 49.3323 24.4821 49.7454C26.5462 50.2457 31.3216 50.9546 34.5481 46.575L34.4196 47.0748C35.2793 47.7426 35.883 51.4183 35.7819 54.7507C35.6807 58.0828 35.6132 60.3705 36.2905 62.1575C36.9683 63.9444 37.6434 67.965 43.4108 66.7669C48.2296 65.7656 50.7269 63.1708 51.0744 58.8423C51.3208 55.7653 51.8789 56.2203 51.9139 53.4691L52.3615 52.1668C52.8775 47.9956 52.4435 46.6498 55.4122 47.2757L56.1341 47.3372C58.3189 47.4335 61.179 46.9963 62.8577 46.2399C66.472 44.6136 68.6157 41.8979 65.0517 42.6114H65.0523Z" fill="#2E2E2E"/>
<path d="M29.552 21.6144C28.8192 21.5155 28.1555 21.6069 27.8198 21.8535C27.6311 21.9922 27.5726 22.1528 27.5567 22.2634C27.5146 22.5563 27.7263 22.8803 27.8564 23.0474C28.2245 23.5203 28.762 23.8454 29.2941 23.917C29.3713 23.9276 29.4481 23.9323 29.5244 23.9323C30.4117 23.9323 31.2186 23.2624 31.2897 22.7679C31.3786 22.1486 30.4513 21.7355 29.552 21.6144ZM53.8289 21.634C53.7589 21.1485 52.868 21.0101 52.0225 21.1241C51.1782 21.2381 50.3595 21.6077 50.4279 22.0942C50.4825 22.4726 51.1872 23.1184 52.0212 23.1184C52.0917 23.1184 52.1628 23.1139 52.2345 23.1041C52.7912 23.0293 53.1997 22.6865 53.3938 22.489C53.6891 22.1878 53.8603 21.8522 53.8289 21.634Z" fill="white"/>
<path d="M67.7585 42.4267C67.4484 41.5175 66.4503 41.2251 64.7922 41.5571C59.869 42.5423 58.1058 41.8598 57.527 41.4465C61.3537 35.794 64.5018 28.9612 66.2001 22.5863C67.0046 19.5665 67.4489 16.762 67.4853 14.4761C67.5255 11.9673 67.0847 10.1236 66.1758 8.99732C62.5112 4.45706 57.1327 2.02162 50.6221 1.95481C46.1462 1.90602 42.3646 3.01663 41.6315 3.32895C40.0877 2.95671 38.4047 2.72817 36.5724 2.69901C33.2124 2.64625 30.3079 3.42625 27.9033 5.0162C26.8588 4.6392 24.1594 3.74069 20.8582 3.22502C15.151 2.3342 10.6158 3.00921 7.37936 5.23228C3.51761 7.88512 1.73479 12.6271 2.08014 19.3263C2.19636 21.5801 3.52089 28.5137 5.61104 35.1538C8.36237 43.8933 11.3532 48.8408 14.4999 49.8586C14.8683 49.9777 15.2929 50.0609 15.7613 50.0609C16.9092 50.0609 18.3166 49.5593 19.7808 47.8524C21.5668 45.7751 23.4143 43.7481 25.321 41.7742C26.558 42.4179 27.917 42.7774 29.3069 42.8135C29.3096 42.8487 29.3132 42.884 29.3164 42.919C29.0772 43.1956 28.8429 43.4763 28.6137 43.7608C27.6507 44.9461 27.4502 45.193 24.3503 45.8118C23.4684 45.9884 21.1264 46.4563 21.092 48.0481C21.0548 49.7873 23.8605 50.5177 24.1802 50.5952C25.2942 50.8656 26.3674 50.9989 27.3909 50.9989C29.88 50.9989 32.0705 50.2057 33.821 48.6709C33.7672 54.8711 34.0338 60.9806 34.8016 62.8421C35.4305 64.366 36.9667 68.0902 41.8191 68.09C42.5311 68.09 43.3148 68.0096 44.1769 67.8304C49.2413 66.7779 51.4405 64.6075 52.2912 59.8228C52.7465 57.2657 53.5277 51.1596 53.8952 47.8843C54.6707 48.1189 55.669 48.2263 56.7482 48.226C58.9992 48.226 61.5966 47.7623 63.2254 47.0292C65.0553 46.2052 68.3573 44.1834 67.7585 42.4267ZM55.6982 20.294C55.6816 21.2609 55.5443 22.1388 55.3988 23.055C55.2421 24.0405 55.0803 25.0594 55.0395 26.2962C54.9993 27.4999 55.1544 28.7513 55.3042 29.9615C55.6072 32.406 55.9181 34.9226 54.7147 37.4057C54.5148 37.0623 54.3367 36.7073 54.1815 36.3428C54.0319 35.9913 53.7071 35.4266 53.2573 34.645C51.5075 31.6024 47.4101 24.4774 49.5076 21.5701C50.1324 20.7047 51.7181 19.8149 55.6982 20.294ZM50.8737 3.91275C56.7072 4.03763 61.3217 6.15359 64.5888 10.2015C67.0946 13.3064 64.3353 27.4341 56.3474 39.6222C56.267 39.5231 56.1863 39.4244 56.1051 39.326L56.0039 39.2035C58.0681 35.8982 57.6645 32.6279 57.3052 29.7285C57.1576 28.5386 57.0181 27.4148 57.0537 26.359C57.0903 25.2402 57.2429 24.2804 57.3905 23.3525C57.5718 22.209 57.7564 21.0258 57.7055 19.631C57.7435 19.4846 57.7589 19.3117 57.7389 19.1065C57.609 17.769 56.034 13.7659 52.8239 10.1427C51.0678 8.16085 48.5071 5.94308 45.0107 4.44725C46.5146 4.145 48.5711 3.86317 50.8737 3.91275ZM18.2313 46.6032C16.618 48.484 15.504 48.1234 15.1376 48.0052C12.7505 47.2331 9.98057 42.341 7.5385 34.5835C5.42538 27.871 4.19053 21.1212 4.09264 19.2285C3.78421 13.2425 5.28073 9.07076 8.54093 6.82886C13.8467 3.18074 22.5699 5.36431 26.0751 6.47174C26.0248 6.51999 25.9723 6.56506 25.9225 6.61411C20.1705 12.2464 20.3069 21.8694 20.3212 22.4577C20.3206 22.6847 20.3403 23.006 20.3671 23.448C20.4661 25.0665 20.6504 28.0789 20.1582 31.4903C19.701 34.6604 20.7089 37.7631 22.9229 40.0032C23.1501 40.2326 23.389 40.451 23.6385 40.6575C22.653 41.6809 20.5112 43.944 18.2313 46.6032ZM24.3779 38.6513C22.5934 36.8458 21.783 34.3345 22.154 31.7607C22.6735 28.1571 22.4819 25.0186 22.3788 23.3324C22.3643 23.0964 22.3514 22.8896 22.344 22.7266C23.1843 22.0041 27.0783 19.9812 29.8554 20.5981C31.1225 20.8794 31.8947 21.7162 32.2157 23.1553C33.8771 30.6061 32.4355 33.7115 31.2773 36.2071C31.0385 36.7212 30.813 37.2071 30.6205 37.7098L30.4712 38.0985C30.0933 39.081 29.7416 39.9947 29.5237 40.8622C27.6266 40.8569 25.7812 40.071 24.3779 38.651V38.6513ZM24.6691 48.6995C24.1151 48.5654 23.6169 48.3323 23.3246 48.139C23.5688 48.0277 24.0033 47.876 24.7569 47.7255C28.4037 46.9977 28.967 46.4839 30.1969 44.9697C30.4788 44.6224 30.7985 44.229 31.2412 43.7496L31.2417 43.7491C31.901 43.0333 32.2026 43.1547 32.7494 43.3747C33.1927 43.5524 33.6244 44.0911 33.7994 44.6839C33.8823 44.9639 33.9753 45.4952 33.6709 45.9088C31.1017 49.3968 27.3578 49.352 24.6691 48.6995ZM43.7548 65.9199C39.2933 66.8468 37.7137 64.6396 36.6727 62.1164C36.0009 60.4875 35.6706 53.142 35.9049 45.0299C35.9079 44.922 35.8921 44.8178 35.8614 44.7197C35.834 44.526 35.7924 44.3345 35.7367 44.1465C35.3884 42.9662 34.5394 41.9789 33.5208 41.5695C33.1161 41.407 32.3735 41.1087 31.481 41.3301C31.6713 40.5697 32.0013 39.711 32.3592 38.7812L32.5094 38.3901C32.6783 37.9492 32.8905 37.4924 33.1148 37.0088C34.3269 34.3979 35.9869 30.8216 34.1853 22.7425C33.5104 19.7163 31.2567 18.2385 27.8404 18.5819C25.7924 18.7873 23.9185 19.5885 22.9839 20.048C22.7829 20.1466 22.5992 20.2421 22.4274 20.3349C22.6883 17.2859 23.6738 11.5879 27.3603 7.98269C29.6815 5.71322 32.7727 4.59227 36.539 4.65272C43.9601 4.77043 48.719 8.46309 51.4047 11.5404C53.7191 14.1919 54.9723 16.863 55.4724 18.3037C51.7112 17.9328 49.1532 18.6526 47.8566 20.4502C45.0355 24.3603 49.3999 31.9492 51.4974 35.5965C51.8821 36.2649 52.2141 36.8426 52.3185 37.0881C53.0016 38.6932 53.8859 39.7648 54.5315 40.5469C54.7294 40.7866 54.9214 41.0191 55.0674 41.2222C53.9283 41.5406 51.8821 42.2763 52.0686 45.9539C51.9182 47.7992 50.8488 56.4385 50.3055 59.4909C49.5883 63.5235 48.0578 65.0254 43.7548 65.9202V65.9199ZM62.3769 45.2571C61.2121 45.7813 59.2628 46.1745 57.411 46.259C55.3657 46.3518 54.3245 46.0369 54.0795 45.8431C53.9646 43.5513 54.8443 43.3119 55.7753 43.0585C55.9216 43.0187 56.0644 42.9797 56.2022 42.9331C56.2878 43.0007 56.3816 43.0677 56.4844 43.1335C58.1283 44.1855 61.0603 44.299 65.1999 43.4705L65.2453 43.4617C64.6869 43.9678 63.7316 44.6471 62.3769 45.2571Z" fill="white"/>
</svg>
