<svg width="70" height="70" viewBox="0 0 70 70" fill="none" xmlns="http://www.w3.org/2000/svg">
<g clip-path="url(#clip0_131_105)">
<path d="M34.7002 0.0197754C16.9744 0.0197754 18.0812 7.73762 18.0812 7.73762L18.1009 15.7335H35.0163V18.1341H11.3823C11.3823 18.1341 0.0395508 16.8426 0.0395508 34.7996C0.0395508 52.7572 9.93979 52.1204 9.93979 52.1204H15.8482V43.7873C15.8482 43.7873 15.5297 33.8473 25.5904 33.8473H42.3675C42.3675 33.8473 51.7934 34.0002 51.7934 24.701V9.32511C51.7934 9.32511 53.225 0.0197754 34.7002 0.0197754ZM25.3731 5.39687C25.7728 5.39651 26.1687 5.47529 26.538 5.62871C26.9074 5.78212 27.243 6.00716 27.5256 6.29094C27.8083 6.57473 28.0324 6.91168 28.1852 7.28253C28.338 7.65338 28.4165 8.05084 28.4161 8.45217C28.4165 8.8535 28.338 9.25096 28.1852 9.62181C28.0324 9.99265 27.8083 10.3296 27.5256 10.6134C27.243 10.8972 26.9074 11.1222 26.538 11.2756C26.1687 11.429 25.7728 11.5078 25.3731 11.5075C24.9733 11.5078 24.5775 11.429 24.2081 11.2756C23.8387 11.1222 23.5031 10.8972 23.2205 10.6134C22.9378 10.3296 22.7137 9.99265 22.5609 9.62181C22.4081 9.25096 22.3296 8.8535 22.33 8.45217C22.3296 8.05084 22.4081 7.65338 22.5609 7.28253C22.7137 6.91168 22.9378 6.57473 23.2205 6.29094C23.5031 6.00716 23.8387 5.78212 24.2081 5.62871C24.5775 5.47529 24.9733 5.39651 25.3731 5.39687Z" fill="#2E2E2E"/>
<path d="M35.2035 69.7601C52.9294 69.7601 51.8226 62.0423 51.8226 62.0423L51.8029 54.0466H34.8872V51.646H58.5212C58.5212 51.646 69.864 52.9376 69.864 34.98C69.864 17.0227 59.9637 17.6595 59.9637 17.6595H54.0553V25.9923C54.0553 25.9923 54.3738 35.9323 44.3131 35.9323H27.536C27.536 35.9323 18.1101 35.7794 18.1101 45.0789V60.4551C18.1101 60.4551 16.6788 69.7601 35.2033 69.7601H35.2035ZM44.5307 64.3836C44.131 64.3839 43.7351 64.3052 43.3658 64.1517C42.9964 63.9983 42.6608 63.7733 42.3781 63.4895C42.0955 63.2057 41.8713 62.8688 41.7185 62.4979C41.5657 62.1271 41.4873 61.7296 41.4876 61.3283C41.4872 60.9269 41.5657 60.5294 41.7185 60.1586C41.8713 59.7877 42.0954 59.4507 42.378 59.1669C42.6607 58.8831 42.9963 58.658 43.3657 58.5046C43.7351 58.3511 44.131 58.2723 44.5307 58.2727C44.9304 58.2723 45.3263 58.3511 45.6957 58.5045C46.065 58.658 46.4006 58.883 46.6833 59.1668C46.9659 59.4506 47.1901 59.7875 47.3429 60.1584C47.4957 60.5292 47.5741 60.9267 47.5738 61.328C47.5741 61.7293 47.4957 62.1268 47.3429 62.4976C47.1901 62.8685 46.9659 63.2054 46.6833 63.4892C46.4006 63.773 46.065 63.998 45.6957 64.1515C45.3263 64.3049 44.9304 64.3839 44.5307 64.3836Z" fill="#2E2E2E"/>
</g>
<defs>
<clipPath id="clip0_131_105">
<rect width="70" height="70" fill="white"/>
</clipPath>
</defs>
</svg>
