<svg width="32" height="32" viewBox="0 0 32 32" fill="none" xmlns="http://www.w3.org/2000/svg">
<path d="M7.27811 22.5933L14.0215 22.5662C14.6784 22.5635 15.5294 22.1654 15.0403 21.7272C10.662 18.4804 10.1363 13.6526 14.9988 9.65126C15.2883 9.26035 14.7006 8.93684 14.2143 8.9388L12.0623 8.94746C14.9212 6.21498 17.6245 5.82616 23.4337 6.15847L27.5918 0.0887716C15.4344 -0.279176 9.36103 0.493991 4.03101 9.12888L7.20222 9.11612C4.69214 13.9524 4.89001 16.9336 7.27811 22.5933Z" fill="#2E2E2E" fill-opacity="0.5"/>
<path d="M28.8794 9H22.3067C21.6653 9 20.8335 9.38551 21.309 9.81592C25.5667 13.0062 26.063 17.7263 21.309 21.6176C21.0254 21.9986 21.5981 22.317 22.0731 22.317H24.1696C21.3733 24.9761 18.7364 25.3454 13.0741 24.9978L9 30.9132C20.8512 31.3207 26.7748 30.589 32 22.1713H28.9083C31.3716 17.4548 31.1887 14.5405 28.8794 9Z" fill="#2E2E2E" fill-opacity="0.5"/>
<path d="M3.83086 23H11.3179C12.009 23 12.9186 22.5905 12.3887 22.147C7.57569 18.8117 7.01458 13.8771 12.3887 9.80888C12.7058 9.41487 12.085 9.07773 11.5792 9.07773H9.15498C12.316 6.29771 15.2968 5.91159 21.6977 6.275L26.3032 0.0907025C12.9063 -0.335242 6.20999 0.429717 0.303223 9.23005H3.7982C1.0136 14.1609 1.22039 17.2077 3.83086 23Z" fill="#EDEDED"/>
<path d="M28.2634 9H21.0912C20.4107 9 19.5215 9.40621 20.0348 9.85301C24.6626 13.1883 25.2022 18.1229 20.0348 22.1911C19.7281 22.5874 20.3376 22.9223 20.8387 22.9223H23.1441C20.1046 25.7023 17.2385 26.0884 11.0838 25.725L6.6554 31.9093C19.5371 32.3352 25.9758 31.5703 31.6554 22.77H28.2948C30.9723 17.8391 30.7735 14.7924 28.2634 9Z" fill="#EDEDED"/>
</svg>
