<svg width="32" height="33" viewBox="0 0 32 33" fill="none" xmlns="http://www.w3.org/2000/svg">
<g opacity="0.4">
<path d="M3.6204 23.0965L10.5193 23.0687C11.1913 23.066 12.0619 22.6588 11.5615 22.2104C7.08226 18.8887 6.54443 13.9498 11.5191 9.85612C11.8153 9.45621 11.214 9.12523 10.7164 9.12724L8.51483 9.1361C11.4396 6.34063 14.2053 5.94285 20.1484 6.28282L24.4023 0.0732056C11.9647 -0.303224 5.75134 0.487766 0.298444 9.32171L3.54276 9.30865C0.974821 14.2564 1.17725 17.3063 3.6204 23.0965Z" fill="#595959"/>
<path d="M26.3196 9.41765H19.4038C18.7334 9.41765 17.8625 9.81992 18.3616 10.2675C22.8372 13.5903 23.359 18.5065 18.3616 22.5596C18.0638 22.9559 18.6628 23.288 19.1585 23.288H21.3686C18.4291 26.0576 15.6572 26.4423 9.70494 26.0803L5.4222 32.2415C17.8802 32.6659 24.1072 31.9037 29.6 23.1362H26.3499C28.9394 18.2238 28.7471 15.1884 26.3196 9.41765Z" fill="#595959"/>
</g>
<path d="M7.06079 23.3978H13.6972C14.3607 23.3978 15.2156 22.9968 14.7309 22.5437C10.4172 19.204 9.91428 14.2629 14.7309 10.1893C15.0195 9.78877 14.4288 9.45718 13.9351 9.45718H11.8327C14.6659 6.6735 17.3374 6.28687 23.0744 6.65076L27.2022 0.458315C15.1949 0.0318087 9.19315 0.797775 3.89905 9.6097H7.03151C4.53575 14.5471 4.72108 17.5978 7.06079 23.3978Z" fill="#DEDEDE"/>
<path d="M27.6959 9.33719H21.0595C20.396 9.33719 19.5411 9.73814 20.0258 10.1913C24.3395 13.531 24.8424 18.4721 20.0258 22.5457C19.7372 22.9462 20.3279 23.2778 20.8216 23.2778H22.924C20.0909 26.0615 17.4193 26.4481 11.6823 26.0842L7.55447 32.2767C19.5618 32.7032 25.5636 31.9372 30.8577 23.1253H27.7252C30.221 18.1879 30.0356 15.1372 27.6959 9.33719Z" fill="#DEDEDE"/>
</svg>
